  0
SECTION
  2
HEADER
  9
$ACADVER
  1
AC1014
  9
$HANDSEED
  5
FFFF
  9
$MEASUREMENT
 70
     1
  0
ENDSEC
  0
SECTION
  2
TABLES
  0
TABLE
  2
VPORT
  5
8
330
0
100
AcDbSymbolTable
 70
     4
  0
VPORT
  5
2E
330
8
100
AcDbSymbolTableRecord
100
AcDbViewportTableRecord
  2
*ACTIVE
 70
     0
 10
0.0
 20
0.0
 11
1.0
 21
1.0
 12
210.0
 22
148.5
 13
0.0
 23
0.0
 14
10.0
 24
10.0
 15
10.0
 25
10.0
 16
0.0
 26
0.0
 36
1.0
 17
0.0
 27
0.0
 37
0.0
 40
341.0
 41
1.24
 42
50.0
 43
0.0
 44
0.0
 50
0.0
 51
0.0
 71
     0
 72
   100
 73
     1
 74
     3
 75
     0
 76
     0
 77
     0
 78
     0
  0
ENDTAB
  0
TABLE
  2
LTYPE
  5
5
330
0
100
AcDbSymbolTable
 70
     1
  0
LTYPE
  5
14
330
5
100
AcDbSymbolTableRecord
100
AcDbLinetypeTableRecord
  2
BYBLOCK
 70
     0
  3

 72
    65
 73
     0
 40
0.0
  0
LTYPE
  5
15
330
5
100
AcDbSymbolTableRecord
100
AcDbLinetypeTableRecord
  2
BYLAYER
 70
     0
  3

 72
    65
 73
     0
 40
0.0
  0
LTYPE
  5
16
330
5
100
AcDbSymbolTableRecord
100
AcDbLinetypeTableRecord
  2
CONTINUOUS
 70
     0
  3
Solid line
 72
    65
 73
     0
 40
0.0
  0
ENDTAB
  0
TABLE
  2
LAYER
  5
2
100
AcDbSymbolTable
 70
1
  0
LAYER
  5
50
100
AcDbSymbolTableRecord
100
AcDbLayerTableRecord
  2
0
 70
0
  6
CONTINUOUS
  0
ENDTAB
  0
TABLE
  2
STYLE
  5
3
330
0
100
AcDbSymbolTable
 70
     1
  0
STYLE
  5
11
330
3
100
AcDbSymbolTableRecord
100
AcDbTextStyleTableRecord
  2
STANDARD
 70
     0
 40
0.0
 41
1.0
 50
0.0
 71
     0
 42
2.5
  3
txt
  4

  0
ENDTAB
  0
TABLE
  2
VIEW
  5
6
330
0
100
AcDbSymbolTable
 70
     0
  0
ENDTAB
  0
TABLE
  2
UCS
  5
7
330
0
100
AcDbSymbolTable
 70
     0
  0
ENDTAB
  0
TABLE
  2
APPID
  5
9
330
0
100
AcDbSymbolTable
 70
     2
  0
APPID
  5
12
330
9
100
AcDbSymbolTableRecord
100
AcDbRegAppTableRecord
  2
ACAD
 70
     0
  0
ENDTAB
  0
TABLE
  2
DIMSTYLE
  5
A
330
0
100
AcDbSymbolTable
 70
     1
  0
DIMSTYLE
105
27
330
A
100
AcDbSymbolTableRecord
100
AcDbDimStyleTableRecord
  2
ISO-25
 70
     0
  3

  4

  5

  6

  7

 40
1.0
 41
2.5
 42
0.625
 43
3.75
 44
1.25
 45
0.0
 46
0.0
 47
0.0
 48
0.0
140
2.5
141
2.5
142
0.0
143
0.03937007874016
144
1.0
145
0.0
146
1.0
147
0.625
 71
     0
 72
     0
 73
     0
 74
     0
 75
     0
 76
     0
 77
     1
 78
     8
170
     0
171
     3
172
     1
173
     0
174
     0
175
     0
176
     0
177
     0
178
     0
270
     2
271
     2
272
     2
273
     2
274
     3
340
11
275
     0
280
     0
281
     0
282
     0
283
     0
284
     8
285
     0
286
     0
287
     3
288
     0
  0
ENDTAB
  0
TABLE
  2
BLOCK_RECORD
  5
1
330
0
100
AcDbSymbolTable
 70
     1
  0
BLOCK_RECORD
  5
1F
330
1
100
AcDbSymbolTableRecord
100
AcDbBlockTableRecord
  2
*MODEL_SPACE
  0
BLOCK_RECORD
  5
1B
330
1
100
AcDbSymbolTableRecord
100
AcDbBlockTableRecord
  2
*PAPER_SPACE
  0
ENDTAB
  0
ENDSEC
  0
SECTION
  2
BLOCKS
  0
BLOCK
  5
20
330
1F
100
AcDbEntity
  8
0
100
AcDbBlockBegin
  2
*MODEL_SPACE
 70
     0
 10
0.0
 20
0.0
 30
0.0
  3
*MODEL_SPACE
  1

  0
ENDBLK
  5
21
330
1F
100
AcDbEntity
  8
0
100
AcDbBlockEnd
  0
BLOCK
  5
1C
330
1B
100
AcDbEntity
 67
     1
  8
0
100
AcDbBlockBegin
  2
*PAPER_SPACE
  1

  0
ENDBLK
  5
1D
330
1B
100
AcDbEntity
 67
     1
  8
0
100
AcDbBlockEnd
  0
ENDSEC
  0
SECTION
  2
ENTITIES
  0
SPLINE
  5
100
100
AcDbEntity
  8
0
 62
1
100
AcDbSpline
 70
8
 71
3
 72
8
 73
4
 74
0
 40
0
 40
0
 40
0
 40
0
 40
1
 40
1
 40
1
 40
1
 10
82.904433
 20
248.282115
 30
0.0
 10
82.904823
 20
248.818273
 30
0.0
 10
82.619010
 20
249.313870
 30
0.0
 10
82.154749
 20
249.582062
 30
0.0
  0
SPLINE
  5
101
100
AcDbEntity
  8
0
 62
1
100
AcDbSpline
 70
8
 71
3
 72
8
 73
4
 74
0
 40
0
 40
0
 40
0
 40
0
 40
1
 40
1
 40
1
 40
1
 10
82.154749
 20
249.582062
 30
0.0
 10
81.690487
 20
249.850254
 30
0.0
 10
81.118380
 20
249.850254
 30
0.0
 10
80.654119
 20
249.582062
 30
0.0
  0
SPLINE
  5
102
100
AcDbEntity
  8
0
 62
1
100
AcDbSpline
 70
8
 71
3
 72
8
 73
4
 74
0
 40
0
 40
0
 40
0
 40
0
 40
1
 40
1
 40
1
 40
1
 10
80.654119
 20
249.582062
 30
0.0
 10
80.189857
 20
249.313870
 30
0.0
 10
79.904044
 20
248.818273
 30
0.0
 10
79.904434
 20
248.282115
 30
0.0
  0
SPLINE
  5
103
100
AcDbEntity
  8
0
 62
1
100
AcDbSpline
 70
8
 71
3
 72
8
 73
4
 74
0
 40
0
 40
0
 40
0
 40
0
 40
1
 40
1
 40
1
 40
1
 10
79.904434
 20
248.282115
 30
0.0
 10
79.904044
 20
247.745957
 30
0.0
 10
80.189857
 20
247.250359
 30
0.0
 10
80.654119
 20
246.982167
 30
0.0
  0
SPLINE
  5
104
100
AcDbEntity
  8
0
 62
1
100
AcDbSpline
 70
8
 71
3
 72
8
 73
4
 74
0
 40
0
 40
0
 40
0
 40
0
 40
1
 40
1
 40
1
 40
1
 10
80.654119
 20
246.982167
 30
0.0
 10
81.118380
 20
246.713976
 30
0.0
 10
81.690487
 20
246.713976
 30
0.0
 10
82.154749
 20
246.982167
 30
0.0
  0
SPLINE
  5
105
100
AcDbEntity
  8
0
 62
1
100
AcDbSpline
 70
8
 71
3
 72
8
 73
4
 74
0
 40
0
 40
0
 40
0
 40
0
 40
1
 40
1
 40
1
 40
1
 10
82.154749
 20
246.982167
 30
0.0
 10
82.619010
 20
247.250359
 30
0.0
 10
82.904823
 20
247.745957
 30
0.0
 10
82.904433
 20
248.282115
 30
0.0
  0
LINE
  5
106
100
AcDbEntity
  8
0
 62
1
100
AcDbLine
 10
82.904433
 20
248.282115
 30
0.0
 11
82.904433
 21
248.282115
 31
0.0
  0
SPLINE
  5
107
100
AcDbEntity
  8
0
 62
1
100
AcDbSpline
 70
8
 71
3
 72
8
 73
4
 74
0
 40
0
 40
0
 40
0
 40
0
 40
1
 40
1
 40
1
 40
1
 10
122.942178
 20
248.329409
 30
0.0
 10
122.942178
 20
248.865308
 30
0.0
 10
122.656279
 20
249.360499
 30
0.0
 10
122.192178
 20
249.628448
 30
0.0
  0
SPLINE
  5
108
100
AcDbEntity
  8
0
 62
1
100
AcDbSpline
 70
8
 71
3
 72
8
 73
4
 74
0
 40
0
 40
0
 40
0
 40
0
 40
1
 40
1
 40
1
 40
1
 10
122.192178
 20
249.628448
 30
0.0
 10
121.728076
 20
249.896397
 30
0.0
 10
121.156278
 20
249.896397
 30
0.0
 10
120.692177
 20
249.628448
 30
0.0
  0
SPLINE
  5
109
100
AcDbEntity
  8
0
 62
1
100
AcDbSpline
 70
8
 71
3
 72
8
 73
4
 74
0
 40
0
 40
0
 40
0
 40
0
 40
1
 40
1
 40
1
 40
1
 10
120.692177
 20
249.628448
 30
0.0
 10
120.228075
 20
249.360499
 30
0.0
 10
119.942176
 20
248.865308
 30
0.0
 10
119.942176
 20
248.329409
 30
0.0
  0
SPLINE
  5
10a
100
AcDbEntity
  8
0
 62
1
100
AcDbSpline
 70
8
 71
3
 72
8
 73
4
 74
0
 40
0
 40
0
 40
0
 40
0
 40
1
 40
1
 40
1
 40
1
 10
119.942176
 20
248.329409
 30
0.0
 10
119.942176
 20
247.793510
 30
0.0
 10
120.228075
 20
247.298319
 30
0.0
 10
120.692177
 20
247.030370
 30
0.0
  0
SPLINE
  5
10b
100
AcDbEntity
  8
0
 62
1
100
AcDbSpline
 70
8
 71
3
 72
8
 73
4
 74
0
 40
0
 40
0
 40
0
 40
0
 40
1
 40
1
 40
1
 40
1
 10
120.692177
 20
247.030370
 30
0.0
 10
121.156278
 20
246.762421
 30
0.0
 10
121.728076
 20
246.762421
 30
0.0
 10
122.192178
 20
247.030370
 30
0.0
  0
SPLINE
  5
10c
100
AcDbEntity
  8
0
 62
1
100
AcDbSpline
 70
8
 71
3
 72
8
 73
4
 74
0
 40
0
 40
0
 40
0
 40
0
 40
1
 40
1
 40
1
 40
1
 10
122.192178
 20
247.030370
 30
0.0
 10
122.656279
 20
247.298319
 30
0.0
 10
122.942178
 20
247.793510
 30
0.0
 10
122.942178
 20
248.329409
 30
0.0
  0
LINE
  5
10d
100
AcDbEntity
  8
0
 62
1
100
AcDbLine
 10
122.942178
 20
248.329409
 30
0.0
 11
122.942178
 21
248.329409
 31
0.0
  0
SPLINE
  5
10e
100
AcDbEntity
  8
0
 62
1
100
AcDbSpline
 70
8
 71
3
 72
8
 73
4
 74
0
 40
0
 40
0
 40
0
 40
0
 40
1
 40
1
 40
1
 40
1
 10
129.321806
 20
71.927282
 30
0.0
 10
129.322586
 20
72.999598
 30
0.0
 10
128.750960
 20
73.990793
 30
0.0
 10
127.822437
 20
74.527177
 30
0.0
  0
SPLINE
  5
10f
100
AcDbEntity
  8
0
 62
1
100
AcDbSpline
 70
8
 71
3
 72
8
 73
4
 74
0
 40
0
 40
0
 40
0
 40
0
 40
1
 40
1
 40
1
 40
1
 10
127.822437
 20
74.527177
 30
0.0
 10
126.893913
 20
75.063560
 30
0.0
 10
125.749700
 20
75.063560
 30
0.0
 10
124.821177
 20
74.527177
 30
0.0
  0
SPLINE
  5
110
100
AcDbEntity
  8
0
 62
1
100
AcDbSpline
 70
8
 71
3
 72
8
 73
4
 74
0
 40
0
 40
0
 40
0
 40
0
 40
1
 40
1
 40
1
 40
1
 10
124.821177
 20
74.527177
 30
0.0
 10
123.892653
 20
73.990793
 30
0.0
 10
123.321027
 20
72.999598
 30
0.0
 10
123.321807
 20
71.927282
 30
0.0
  0
SPLINE
  5
111
100
AcDbEntity
  8
0
 62
1
100
AcDbSpline
 70
8
 71
3
 72
8
 73
4
 74
0
 40
0
 40
0
 40
0
 40
0
 40
1
 40
1
 40
1
 40
1
 10
123.321807
 20
71.927282
 30
0.0
 10
123.321027
 20
70.854966
 30
0.0
 10
123.892653
 20
69.863771
 30
0.0
 10
124.821177
 20
69.327387
 30
0.0
  0
SPLINE
  5
112
100
AcDbEntity
  8
0
 62
1
100
AcDbSpline
 70
8
 71
3
 72
8
 73
4
 74
0
 40
0
 40
0
 40
0
 40
0
 40
1
 40
1
 40
1
 40
1
 10
124.821177
 20
69.327387
 30
0.0
 10
125.749700
 20
68.791004
 30
0.0
 10
126.893913
 20
68.791004
 30
0.0
 10
127.822437
 20
69.327387
 30
0.0
  0
SPLINE
  5
113
100
AcDbEntity
  8
0
 62
1
100
AcDbSpline
 70
8
 71
3
 72
8
 73
4
 74
0
 40
0
 40
0
 40
0
 40
0
 40
1
 40
1
 40
1
 40
1
 10
127.822437
 20
69.327387
 30
0.0
 10
128.750960
 20
69.863771
 30
0.0
 10
129.322586
 20
70.854966
 30
0.0
 10
129.321806
 20
71.927282
 30
0.0
  0
LINE
  5
114
100
AcDbEntity
  8
0
 62
1
100
AcDbLine
 10
129.321806
 20
71.927282
 30
0.0
 11
129.321806
 21
71.927282
 31
0.0
  0
SPLINE
  5
115
100
AcDbEntity
  8
0
 62
1
100
AcDbSpline
 70
8
 71
3
 72
8
 73
4
 74
0
 40
0
 40
0
 40
0
 40
0
 40
1
 40
1
 40
1
 40
1
 10
79.720929
 20
121.907579
 30
0.0
 10
79.720930
 20
122.979376
 30
0.0
 10
79.149133
 20
123.969758
 30
0.0
 10
78.220929
 20
124.505656
 30
0.0
  0
SPLINE
  5
116
100
AcDbEntity
  8
0
 62
1
100
AcDbSpline
 70
8
 71
3
 72
8
 73
4
 74
0
 40
0
 40
0
 40
0
 40
0
 40
1
 40
1
 40
1
 40
1
 10
78.220929
 20
124.505656
 30
0.0
 10
77.292726
 20
125.041555
 30
0.0
 10
76.149132
 20
125.041555
 30
0.0
 10
75.220929
 20
124.505656
 30
0.0
  0
SPLINE
  5
117
100
AcDbEntity
  8
0
 62
1
100
AcDbSpline
 70
8
 71
3
 72
8
 73
4
 74
0
 40
0
 40
0
 40
0
 40
0
 40
1
 40
1
 40
1
 40
1
 10
75.220929
 20
124.505656
 30
0.0
 10
74.292725
 20
123.969758
 30
0.0
 10
73.720928
 20
122.979376
 30
0.0
 10
73.720928
 20
121.907579
 30
0.0
  0
SPLINE
  5
118
100
AcDbEntity
  8
0
 62
1
100
AcDbSpline
 70
8
 71
3
 72
8
 73
4
 74
0
 40
0
 40
0
 40
0
 40
0
 40
1
 40
1
 40
1
 40
1
 10
73.720928
 20
121.907579
 30
0.0
 10
73.720928
 20
120.835782
 30
0.0
 10
74.292725
 20
119.845401
 30
0.0
 10
75.220929
 20
119.309502
 30
0.0
  0
SPLINE
  5
119
100
AcDbEntity
  8
0
 62
1
100
AcDbSpline
 70
8
 71
3
 72
8
 73
4
 74
0
 40
0
 40
0
 40
0
 40
0
 40
1
 40
1
 40
1
 40
1
 10
75.220929
 20
119.309502
 30
0.0
 10
76.149132
 20
118.773604
 30
0.0
 10
77.292726
 20
118.773604
 30
0.0
 10
78.220929
 20
119.309502
 30
0.0
  0
SPLINE
  5
11a
100
AcDbEntity
  8
0
 62
1
100
AcDbSpline
 70
8
 71
3
 72
8
 73
4
 74
0
 40
0
 40
0
 40
0
 40
0
 40
1
 40
1
 40
1
 40
1
 10
78.220929
 20
119.309502
 30
0.0
 10
79.149133
 20
119.845401
 30
0.0
 10
79.720930
 20
120.835782
 30
0.0
 10
79.720929
 20
121.907579
 30
0.0
  0
LINE
  5
11b
100
AcDbEntity
  8
0
 62
1
100
AcDbLine
 10
79.720929
 20
121.907579
 30
0.0
 11
79.720929
 21
121.907579
 31
0.0
  0
SPLINE
  5
11c
100
AcDbEntity
  8
0
 62
1
100
AcDbSpline
 70
8
 71
3
 72
8
 73
4
 74
0
 40
0
 40
0
 40
0
 40
0
 40
1
 40
1
 40
1
 40
1
 10
129.321806
 20
121.907579
 30
0.0
 10
129.322586
 20
122.979895
 30
0.0
 10
128.750960
 20
123.971090
 30
0.0
 10
127.822437
 20
124.507474
 30
0.0
  0
SPLINE
  5
11d
100
AcDbEntity
  8
0
 62
1
100
AcDbSpline
 70
8
 71
3
 72
8
 73
4
 74
0
 40
0
 40
0
 40
0
 40
0
 40
1
 40
1
 40
1
 40
1
 10
127.822437
 20
124.507474
 30
0.0
 10
126.893913
 20
125.043857
 30
0.0
 10
125.749700
 20
125.043857
 30
0.0
 10
124.821177
 20
124.507474
 30
0.0
  0
SPLINE
  5
11e
100
AcDbEntity
  8
0
 62
1
100
AcDbSpline
 70
8
 71
3
 72
8
 73
4
 74
0
 40
0
 40
0
 40
0
 40
0
 40
1
 40
1
 40
1
 40
1
 10
124.821177
 20
124.507474
 30
0.0
 10
123.892653
 20
123.971090
 30
0.0
 10
123.321027
 20
122.979895
 30
0.0
 10
123.321807
 20
121.907579
 30
0.0
  0
SPLINE
  5
11f
100
AcDbEntity
  8
0
 62
1
100
AcDbSpline
 70
8
 71
3
 72
8
 73
4
 74
0
 40
0
 40
0
 40
0
 40
0
 40
1
 40
1
 40
1
 40
1
 10
123.321807
 20
121.907579
 30
0.0
 10
123.321027
 20
120.835263
 30
0.0
 10
123.892653
 20
119.844068
 30
0.0
 10
124.821177
 20
119.307684
 30
0.0
  0
SPLINE
  5
120
100
AcDbEntity
  8
0
 62
1
100
AcDbSpline
 70
8
 71
3
 72
8
 73
4
 74
0
 40
0
 40
0
 40
0
 40
0
 40
1
 40
1
 40
1
 40
1
 10
124.821177
 20
119.307684
 30
0.0
 10
125.749700
 20
118.771301
 30
0.0
 10
126.893913
 20
118.771301
 30
0.0
 10
127.822437
 20
119.307684
 30
0.0
  0
SPLINE
  5
121
100
AcDbEntity
  8
0
 62
1
100
AcDbSpline
 70
8
 71
3
 72
8
 73
4
 74
0
 40
0
 40
0
 40
0
 40
0
 40
1
 40
1
 40
1
 40
1
 10
127.822437
 20
119.307684
 30
0.0
 10
128.750960
 20
119.844068
 30
0.0
 10
129.322586
 20
120.835263
 30
0.0
 10
129.321806
 20
121.907579
 30
0.0
  0
LINE
  5
122
100
AcDbEntity
  8
0
 62
1
100
AcDbLine
 10
129.321806
 20
121.907579
 30
0.0
 11
129.321806
 21
121.907579
 31
0.0
  0
SPLINE
  5
123
100
AcDbEntity
  8
0
 62
1
100
AcDbSpline
 70
8
 71
3
 72
8
 73
4
 74
0
 40
0
 40
0
 40
0
 40
0
 40
1
 40
1
 40
1
 40
1
 10
79.720929
 20
71.927282
 30
0.0
 10
79.720930
 20
72.999079
 30
0.0
 10
79.149133
 20
73.989460
 30
0.0
 10
78.220929
 20
74.525359
 30
0.0
  0
SPLINE
  5
124
100
AcDbEntity
  8
0
 62
1
100
AcDbSpline
 70
8
 71
3
 72
8
 73
4
 74
0
 40
0
 40
0
 40
0
 40
0
 40
1
 40
1
 40
1
 40
1
 10
78.220929
 20
74.525359
 30
0.0
 10
77.292726
 20
75.061258
 30
0.0
 10
76.149132
 20
75.061258
 30
0.0
 10
75.220929
 20
74.525359
 30
0.0
  0
SPLINE
  5
125
100
AcDbEntity
  8
0
 62
1
100
AcDbSpline
 70
8
 71
3
 72
8
 73
4
 74
0
 40
0
 40
0
 40
0
 40
0
 40
1
 40
1
 40
1
 40
1
 10
75.220929
 20
74.525359
 30
0.0
 10
74.292725
 20
73.989460
 30
0.0
 10
73.720928
 20
72.999079
 30
0.0
 10
73.720928
 20
71.927282
 30
0.0
  0
SPLINE
  5
126
100
AcDbEntity
  8
0
 62
1
100
AcDbSpline
 70
8
 71
3
 72
8
 73
4
 74
0
 40
0
 40
0
 40
0
 40
0
 40
1
 40
1
 40
1
 40
1
 10
73.720928
 20
71.927282
 30
0.0
 10
73.720928
 20
70.855485
 30
0.0
 10
74.292725
 20
69.865104
 30
0.0
 10
75.220929
 20
69.329205
 30
0.0
  0
SPLINE
  5
127
100
AcDbEntity
  8
0
 62
1
100
AcDbSpline
 70
8
 71
3
 72
8
 73
4
 74
0
 40
0
 40
0
 40
0
 40
0
 40
1
 40
1
 40
1
 40
1
 10
75.220929
 20
69.329205
 30
0.0
 10
76.149132
 20
68.793307
 30
0.0
 10
77.292726
 20
68.793307
 30
0.0
 10
78.220929
 20
69.329205
 30
0.0
  0
SPLINE
  5
128
100
AcDbEntity
  8
0
 62
1
100
AcDbSpline
 70
8
 71
3
 72
8
 73
4
 74
0
 40
0
 40
0
 40
0
 40
0
 40
1
 40
1
 40
1
 40
1
 10
78.220929
 20
69.329205
 30
0.0
 10
79.149133
 20
69.865104
 30
0.0
 10
79.720930
 20
70.855485
 30
0.0
 10
79.720929
 20
71.927282
 30
0.0
  0
LINE
  5
129
100
AcDbEntity
  8
0
 62
1
100
AcDbLine
 10
79.720929
 20
71.927282
 30
0.0
 11
79.720929
 21
71.927282
 31
0.0
  0
SPLINE
  5
12a
100
AcDbEntity
  8
0
 62
1
100
AcDbSpline
 70
8
 71
3
 72
8
 73
4
 74
0
 40
0
 40
0
 40
0
 40
0
 40
1
 40
1
 40
1
 40
1
 10
169.746369
 20
259.500419
 30
0.0
 10
169.746873
 20
260.038028
 30
0.0
 10
169.460352
 20
260.535014
 30
0.0
 10
168.994853
 20
260.803964
 30
0.0
  0
SPLINE
  5
12b
100
AcDbEntity
  8
0
 62
1
100
AcDbSpline
 70
8
 71
3
 72
8
 73
4
 74
0
 40
0
 40
0
 40
0
 40
0
 40
1
 40
1
 40
1
 40
1
 10
168.994853
 20
260.803964
 30
0.0
 10
168.529354
 20
261.072914
 30
0.0
 10
167.955690
 20
261.072914
 30
0.0
 10
167.490192
 20
260.803964
 30
0.0
  0
SPLINE
  5
12c
100
AcDbEntity
  8
0
 62
1
100
AcDbSpline
 70
8
 71
3
 72
8
 73
4
 74
0
 40
0
 40
0
 40
0
 40
0
 40
1
 40
1
 40
1
 40
1
 10
167.490192
 20
260.803964
 30
0.0
 10
167.024693
 20
260.535014
 30
0.0
 10
166.738171
 20
260.038028
 30
0.0
 10
166.738676
 20
259.500419
 30
0.0
  0
SPLINE
  5
12d
100
AcDbEntity
  8
0
 62
1
100
AcDbSpline
 70
8
 71
3
 72
8
 73
4
 74
0
 40
0
 40
0
 40
0
 40
0
 40
1
 40
1
 40
1
 40
1
 10
166.738676
 20
259.500419
 30
0.0
 10
166.738171
 20
258.962810
 30
0.0
 10
167.024693
 20
258.465824
 30
0.0
 10
167.490192
 20
258.196874
 30
0.0
  0
SPLINE
  5
12e
100
AcDbEntity
  8
0
 62
1
100
AcDbSpline
 70
8
 71
3
 72
8
 73
4
 74
0
 40
0
 40
0
 40
0
 40
0
 40
1
 40
1
 40
1
 40
1
 10
167.490192
 20
258.196874
 30
0.0
 10
167.955690
 20
257.927924
 30
0.0
 10
168.529354
 20
257.927924
 30
0.0
 10
168.994853
 20
258.196874
 30
0.0
  0
SPLINE
  5
12f
100
AcDbEntity
  8
0
 62
1
100
AcDbSpline
 70
8
 71
3
 72
8
 73
4
 74
0
 40
0
 40
0
 40
0
 40
0
 40
1
 40
1
 40
1
 40
1
 10
168.994853
 20
258.196874
 30
0.0
 10
169.460352
 20
258.465824
 30
0.0
 10
169.746873
 20
258.962810
 30
0.0
 10
169.746369
 20
259.500419
 30
0.0
  0
LINE
  5
130
100
AcDbEntity
  8
0
 62
1
100
AcDbLine
 10
169.746369
 20
259.500419
 30
0.0
 11
169.746369
 21
259.500419
 31
0.0
  0
SPLINE
  5
131
100
AcDbEntity
  8
0
 62
1
100
AcDbSpline
 70
8
 71
3
 72
8
 73
4
 74
0
 40
0
 40
0
 40
0
 40
0
 40
1
 40
1
 40
1
 40
1
 10
36.190343
 20
259.500419
 30
0.0
 10
36.190848
 20
260.038028
 30
0.0
 10
35.904326
 20
260.535014
 30
0.0
 10
35.438827
 20
260.803964
 30
0.0
  0
SPLINE
  5
132
100
AcDbEntity
  8
0
 62
1
100
AcDbSpline
 70
8
 71
3
 72
8
 73
4
 74
0
 40
0
 40
0
 40
0
 40
0
 40
1
 40
1
 40
1
 40
1
 10
35.438827
 20
260.803964
 30
0.0
 10
34.973329
 20
261.072914
 30
0.0
 10
34.399665
 20
261.072914
 30
0.0
 10
33.934166
 20
260.803964
 30
0.0
  0
SPLINE
  5
133
100
AcDbEntity
  8
0
 62
1
100
AcDbSpline
 70
8
 71
3
 72
8
 73
4
 74
0
 40
0
 40
0
 40
0
 40
0
 40
1
 40
1
 40
1
 40
1
 10
33.934166
 20
260.803964
 30
0.0
 10
33.468667
 20
260.535014
 30
0.0
 10
33.182146
 20
260.038028
 30
0.0
 10
33.182650
 20
259.500419
 30
0.0
  0
SPLINE
  5
134
100
AcDbEntity
  8
0
 62
1
100
AcDbSpline
 70
8
 71
3
 72
8
 73
4
 74
0
 40
0
 40
0
 40
0
 40
0
 40
1
 40
1
 40
1
 40
1
 10
33.182650
 20
259.500419
 30
0.0
 10
33.182146
 20
258.962810
 30
0.0
 10
33.468667
 20
258.465824
 30
0.0
 10
33.934166
 20
258.196874
 30
0.0
  0
SPLINE
  5
135
100
AcDbEntity
  8
0
 62
1
100
AcDbSpline
 70
8
 71
3
 72
8
 73
4
 74
0
 40
0
 40
0
 40
0
 40
0
 40
1
 40
1
 40
1
 40
1
 10
33.934166
 20
258.196874
 30
0.0
 10
34.399665
 20
257.927924
 30
0.0
 10
34.973329
 20
257.927924
 30
0.0
 10
35.438827
 20
258.196874
 30
0.0
  0
SPLINE
  5
136
100
AcDbEntity
  8
0
 62
1
100
AcDbSpline
 70
8
 71
3
 72
8
 73
4
 74
0
 40
0
 40
0
 40
0
 40
0
 40
1
 40
1
 40
1
 40
1
 10
35.438827
 20
258.196874
 30
0.0
 10
35.904326
 20
258.465824
 30
0.0
 10
36.190848
 20
258.962810
 30
0.0
 10
36.190343
 20
259.500419
 30
0.0
  0
LINE
  5
137
100
AcDbEntity
  8
0
 62
1
100
AcDbLine
 10
36.190343
 20
259.500419
 30
0.0
 11
36.190343
 21
259.500419
 31
0.0
  0
SPLINE
  5
138
100
AcDbEntity
  8
0
 62
1
100
AcDbSpline
 70
8
 71
3
 72
8
 73
4
 74
0
 40
0
 40
0
 40
0
 40
0
 40
1
 40
1
 40
1
 40
1
 10
25.176364
 20
239.968269
 30
0.0
 10
25.176589
 20
240.505475
 30
0.0
 10
24.890122
 20
241.001970
 30
0.0
 10
24.424926
 20
241.270638
 30
0.0
  0
SPLINE
  5
139
100
AcDbEntity
  8
0
 62
1
100
AcDbSpline
 70
8
 71
3
 72
8
 73
4
 74
0
 40
0
 40
0
 40
0
 40
0
 40
1
 40
1
 40
1
 40
1
 10
24.424926
 20
241.270638
 30
0.0
 10
23.959729
 20
241.539306
 30
0.0
 10
23.386518
 20
241.539306
 30
0.0
 10
22.921322
 20
241.270638
 30
0.0
  0
SPLINE
  5
13a
100
AcDbEntity
  8
0
 62
1
100
AcDbSpline
 70
8
 71
3
 72
8
 73
4
 74
0
 40
0
 40
0
 40
0
 40
0
 40
1
 40
1
 40
1
 40
1
 10
22.921322
 20
241.270638
 30
0.0
 10
22.456125
 20
241.001970
 30
0.0
 10
22.169658
 20
240.505475
 30
0.0
 10
22.169884
 20
239.968269
 30
0.0
  0
SPLINE
  5
13b
100
AcDbEntity
  8
0
 62
1
100
AcDbSpline
 70
8
 71
3
 72
8
 73
4
 74
0
 40
0
 40
0
 40
0
 40
0
 40
1
 40
1
 40
1
 40
1
 10
22.169884
 20
239.968269
 30
0.0
 10
22.169658
 20
239.431063
 30
0.0
 10
22.456125
 20
238.934567
 30
0.0
 10
22.921322
 20
238.665899
 30
0.0
  0
SPLINE
  5
13c
100
AcDbEntity
  8
0
 62
1
100
AcDbSpline
 70
8
 71
3
 72
8
 73
4
 74
0
 40
0
 40
0
 40
0
 40
0
 40
1
 40
1
 40
1
 40
1
 10
22.921322
 20
238.665899
 30
0.0
 10
23.386518
 20
238.397231
 30
0.0
 10
23.959729
 20
238.397231
 30
0.0
 10
24.424926
 20
238.665899
 30
0.0
  0
SPLINE
  5
13d
100
AcDbEntity
  8
0
 62
1
100
AcDbSpline
 70
8
 71
3
 72
8
 73
4
 74
0
 40
0
 40
0
 40
0
 40
0
 40
1
 40
1
 40
1
 40
1
 10
24.424926
 20
238.665899
 30
0.0
 10
24.890122
 20
238.934567
 30
0.0
 10
25.176589
 20
239.431063
 30
0.0
 10
25.176364
 20
239.968269
 30
0.0
  0
LINE
  5
13e
100
AcDbEntity
  8
0
 62
1
100
AcDbLine
 10
25.176364
 20
239.968269
 30
0.0
 11
25.176364
 21
239.968269
 31
0.0
  0
SPLINE
  5
13f
100
AcDbEntity
  8
0
 62
1
100
AcDbSpline
 70
8
 71
3
 72
8
 73
4
 74
0
 40
0
 40
0
 40
0
 40
0
 40
1
 40
1
 40
1
 40
1
 10
180.759137
 20
239.968269
 30
0.0
 10
180.759137
 20
240.505325
 30
0.0
 10
180.472621
 20
241.001585
 30
0.0
 10
180.007517
 20
241.270113
 30
0.0
  0
SPLINE
  5
140
100
AcDbEntity
  8
0
 62
1
100
AcDbSpline
 70
8
 71
3
 72
8
 73
4
 74
0
 40
0
 40
0
 40
0
 40
0
 40
1
 40
1
 40
1
 40
1
 10
180.007517
 20
241.270113
 30
0.0
 10
179.542412
 20
241.538642
 30
0.0
 10
178.969380
 20
241.538642
 30
0.0
 10
178.504276
 20
241.270113
 30
0.0
  0
SPLINE
  5
141
100
AcDbEntity
  8
0
 62
1
100
AcDbSpline
 70
8
 71
3
 72
8
 73
4
 74
0
 40
0
 40
0
 40
0
 40
0
 40
1
 40
1
 40
1
 40
1
 10
178.504276
 20
241.270113
 30
0.0
 10
178.039172
 20
241.001585
 30
0.0
 10
177.752655
 20
240.505325
 30
0.0
 10
177.752655
 20
239.968269
 30
0.0
  0
SPLINE
  5
142
100
AcDbEntity
  8
0
 62
1
100
AcDbSpline
 70
8
 71
3
 72
8
 73
4
 74
0
 40
0
 40
0
 40
0
 40
0
 40
1
 40
1
 40
1
 40
1
 10
177.752655
 20
239.968269
 30
0.0
 10
177.752655
 20
239.431213
 30
0.0
 10
178.039172
 20
238.934952
 30
0.0
 10
178.504276
 20
238.666424
 30
0.0
  0
SPLINE
  5
143
100
AcDbEntity
  8
0
 62
1
100
AcDbSpline
 70
8
 71
3
 72
8
 73
4
 74
0
 40
0
 40
0
 40
0
 40
0
 40
1
 40
1
 40
1
 40
1
 10
178.504276
 20
238.666424
 30
0.0
 10
178.969380
 20
238.397896
 30
0.0
 10
179.542412
 20
238.397896
 30
0.0
 10
180.007517
 20
238.666424
 30
0.0
  0
SPLINE
  5
144
100
AcDbEntity
  8
0
 62
1
100
AcDbSpline
 70
8
 71
3
 72
8
 73
4
 74
0
 40
0
 40
0
 40
0
 40
0
 40
1
 40
1
 40
1
 40
1
 10
180.007517
 20
238.666424
 30
0.0
 10
180.472621
 20
238.934952
 30
0.0
 10
180.759137
 20
239.431213
 30
0.0
 10
180.759137
 20
239.968269
 30
0.0
  0
LINE
  5
145
100
AcDbEntity
  8
0
 62
1
100
AcDbLine
 10
180.759137
 20
239.968269
 30
0.0
 11
180.759137
 21
239.968269
 31
0.0
  0
SPLINE
  5
146
100
AcDbEntity
  8
0
 62
1
100
AcDbSpline
 70
8
 71
3
 72
8
 73
4
 74
0
 40
0
 40
0
 40
0
 40
0
 40
1
 40
1
 40
1
 40
1
 10
191.767402
 20
259.523761
 30
0.0
 10
191.767402
 20
260.058991
 30
0.0
 10
191.481860
 20
260.553565
 30
0.0
 10
191.018336
 20
260.821181
 30
0.0
  0
SPLINE
  5
147
100
AcDbEntity
  8
0
 62
1
100
AcDbSpline
 70
8
 71
3
 72
8
 73
4
 74
0
 40
0
 40
0
 40
0
 40
0
 40
1
 40
1
 40
1
 40
1
 10
191.018336
 20
260.821181
 30
0.0
 10
190.554812
 20
261.088796
 30
0.0
 10
189.983728
 20
261.088796
 30
0.0
 10
189.520204
 20
260.821181
 30
0.0
  0
SPLINE
  5
148
100
AcDbEntity
  8
0
 62
1
100
AcDbSpline
 70
8
 71
3
 72
8
 73
4
 74
0
 40
0
 40
0
 40
0
 40
0
 40
1
 40
1
 40
1
 40
1
 10
189.520204
 20
260.821181
 30
0.0
 10
189.056681
 20
260.553565
 30
0.0
 10
188.771138
 20
260.058991
 30
0.0
 10
188.771138
 20
259.523761
 30
0.0
  0
SPLINE
  5
149
100
AcDbEntity
  8
0
 62
1
100
AcDbSpline
 70
8
 71
3
 72
8
 73
4
 74
0
 40
0
 40
0
 40
0
 40
0
 40
1
 40
1
 40
1
 40
1
 10
188.771138
 20
259.523761
 30
0.0
 10
188.771138
 20
258.988530
 30
0.0
 10
189.056681
 20
258.493956
 30
0.0
 10
189.520204
 20
258.226340
 30
0.0
  0
SPLINE
  5
14a
100
AcDbEntity
  8
0
 62
1
100
AcDbSpline
 70
8
 71
3
 72
8
 73
4
 74
0
 40
0
 40
0
 40
0
 40
0
 40
1
 40
1
 40
1
 40
1
 10
189.520204
 20
258.226340
 30
0.0
 10
189.983728
 20
257.958725
 30
0.0
 10
190.554812
 20
257.958725
 30
0.0
 10
191.018336
 20
258.226340
 30
0.0
  0
SPLINE
  5
14b
100
AcDbEntity
  8
0
 62
1
100
AcDbSpline
 70
8
 71
3
 72
8
 73
4
 74
0
 40
0
 40
0
 40
0
 40
0
 40
1
 40
1
 40
1
 40
1
 10
191.018336
 20
258.226340
 30
0.0
 10
191.481860
 20
258.493956
 30
0.0
 10
191.767402
 20
258.988530
 30
0.0
 10
191.767402
 20
259.523761
 30
0.0
  0
LINE
  5
14c
100
AcDbEntity
  8
0
 62
1
100
AcDbLine
 10
191.767402
 20
259.523761
 30
0.0
 11
191.767402
 21
259.523761
 31
0.0
  0
SPLINE
  5
14d
100
AcDbEntity
  8
0
 62
1
100
AcDbSpline
 70
8
 71
3
 72
8
 73
4
 74
0
 40
0
 40
0
 40
0
 40
0
 40
1
 40
1
 40
1
 40
1
 10
122.942178
 20
248.329409
 30
0.0
 10
122.942178
 20
248.865308
 30
0.0
 10
122.656279
 20
249.360499
 30
0.0
 10
122.192178
 20
249.628448
 30
0.0
  0
SPLINE
  5
14e
100
AcDbEntity
  8
0
 62
1
100
AcDbSpline
 70
8
 71
3
 72
8
 73
4
 74
0
 40
0
 40
0
 40
0
 40
0
 40
1
 40
1
 40
1
 40
1
 10
122.192178
 20
249.628448
 30
0.0
 10
121.728076
 20
249.896397
 30
0.0
 10
121.156278
 20
249.896397
 30
0.0
 10
120.692177
 20
249.628448
 30
0.0
  0
SPLINE
  5
14f
100
AcDbEntity
  8
0
 62
1
100
AcDbSpline
 70
8
 71
3
 72
8
 73
4
 74
0
 40
0
 40
0
 40
0
 40
0
 40
1
 40
1
 40
1
 40
1
 10
120.692177
 20
249.628448
 30
0.0
 10
120.228075
 20
249.360499
 30
0.0
 10
119.942176
 20
248.865308
 30
0.0
 10
119.942176
 20
248.329409
 30
0.0
  0
SPLINE
  5
150
100
AcDbEntity
  8
0
 62
1
100
AcDbSpline
 70
8
 71
3
 72
8
 73
4
 74
0
 40
0
 40
0
 40
0
 40
0
 40
1
 40
1
 40
1
 40
1
 10
119.942176
 20
248.329409
 30
0.0
 10
119.942176
 20
247.793510
 30
0.0
 10
120.228075
 20
247.298319
 30
0.0
 10
120.692177
 20
247.030370
 30
0.0
  0
SPLINE
  5
151
100
AcDbEntity
  8
0
 62
1
100
AcDbSpline
 70
8
 71
3
 72
8
 73
4
 74
0
 40
0
 40
0
 40
0
 40
0
 40
1
 40
1
 40
1
 40
1
 10
120.692177
 20
247.030370
 30
0.0
 10
121.156278
 20
246.762421
 30
0.0
 10
121.728076
 20
246.762421
 30
0.0
 10
122.192178
 20
247.030370
 30
0.0
  0
SPLINE
  5
152
100
AcDbEntity
  8
0
 62
1
100
AcDbSpline
 70
8
 71
3
 72
8
 73
4
 74
0
 40
0
 40
0
 40
0
 40
0
 40
1
 40
1
 40
1
 40
1
 10
122.192178
 20
247.030370
 30
0.0
 10
122.656279
 20
247.298319
 30
0.0
 10
122.942178
 20
247.793510
 30
0.0
 10
122.942178
 20
248.329409
 30
0.0
  0
LINE
  5
153
100
AcDbEntity
  8
0
 62
1
100
AcDbLine
 10
122.942178
 20
248.329409
 30
0.0
 11
122.942178
 21
248.329409
 31
0.0
  0
SPLINE
  5
154
100
AcDbEntity
  8
0
 62
1
100
AcDbSpline
 70
8
 71
3
 72
8
 73
4
 74
0
 40
0
 40
0
 40
0
 40
0
 40
1
 40
1
 40
1
 40
1
 10
82.904433
 20
248.282115
 30
0.0
 10
82.904823
 20
248.818273
 30
0.0
 10
82.619010
 20
249.313870
 30
0.0
 10
82.154749
 20
249.582062
 30
0.0
  0
SPLINE
  5
155
100
AcDbEntity
  8
0
 62
1
100
AcDbSpline
 70
8
 71
3
 72
8
 73
4
 74
0
 40
0
 40
0
 40
0
 40
0
 40
1
 40
1
 40
1
 40
1
 10
82.154749
 20
249.582062
 30
0.0
 10
81.690487
 20
249.850254
 30
0.0
 10
81.118380
 20
249.850254
 30
0.0
 10
80.654119
 20
249.582062
 30
0.0
  0
SPLINE
  5
156
100
AcDbEntity
  8
0
 62
1
100
AcDbSpline
 70
8
 71
3
 72
8
 73
4
 74
0
 40
0
 40
0
 40
0
 40
0
 40
1
 40
1
 40
1
 40
1
 10
80.654119
 20
249.582062
 30
0.0
 10
80.189857
 20
249.313870
 30
0.0
 10
79.904044
 20
248.818273
 30
0.0
 10
79.904434
 20
248.282115
 30
0.0
  0
SPLINE
  5
157
100
AcDbEntity
  8
0
 62
1
100
AcDbSpline
 70
8
 71
3
 72
8
 73
4
 74
0
 40
0
 40
0
 40
0
 40
0
 40
1
 40
1
 40
1
 40
1
 10
79.904434
 20
248.282115
 30
0.0
 10
79.904044
 20
247.745957
 30
0.0
 10
80.189857
 20
247.250359
 30
0.0
 10
80.654119
 20
246.982167
 30
0.0
  0
SPLINE
  5
158
100
AcDbEntity
  8
0
 62
1
100
AcDbSpline
 70
8
 71
3
 72
8
 73
4
 74
0
 40
0
 40
0
 40
0
 40
0
 40
1
 40
1
 40
1
 40
1
 10
80.654119
 20
246.982167
 30
0.0
 10
81.118380
 20
246.713976
 30
0.0
 10
81.690487
 20
246.713976
 30
0.0
 10
82.154749
 20
246.982167
 30
0.0
  0
SPLINE
  5
159
100
AcDbEntity
  8
0
 62
1
100
AcDbSpline
 70
8
 71
3
 72
8
 73
4
 74
0
 40
0
 40
0
 40
0
 40
0
 40
1
 40
1
 40
1
 40
1
 10
82.154749
 20
246.982167
 30
0.0
 10
82.619010
 20
247.250359
 30
0.0
 10
82.904823
 20
247.745957
 30
0.0
 10
82.904433
 20
248.282115
 30
0.0
  0
LINE
  5
15a
100
AcDbEntity
  8
0
 62
1
100
AcDbLine
 10
82.904433
 20
248.282115
 30
0.0
 11
82.904433
 21
248.282115
 31
0.0
  0
SPLINE
  5
15b
100
AcDbEntity
  8
0
 62
1
100
AcDbSpline
 70
8
 71
3
 72
8
 73
4
 74
0
 40
0
 40
0
 40
0
 40
0
 40
1
 40
1
 40
1
 40
1
 10
143.378989
 20
212.648415
 30
0.0
 10
143.379379
 20
213.184573
 30
0.0
 10
143.093566
 20
213.680171
 30
0.0
 10
142.629304
 20
213.948362
 30
0.0
  0
SPLINE
  5
15c
100
AcDbEntity
  8
0
 62
1
100
AcDbSpline
 70
8
 71
3
 72
8
 73
4
 74
0
 40
0
 40
0
 40
0
 40
0
 40
1
 40
1
 40
1
 40
1
 10
142.629304
 20
213.948362
 30
0.0
 10
142.165043
 20
214.216554
 30
0.0
 10
141.592936
 20
214.216554
 30
0.0
 10
141.128674
 20
213.948362
 30
0.0
  0
SPLINE
  5
15d
100
AcDbEntity
  8
0
 62
1
100
AcDbSpline
 70
8
 71
3
 72
8
 73
4
 74
0
 40
0
 40
0
 40
0
 40
0
 40
1
 40
1
 40
1
 40
1
 10
141.128674
 20
213.948362
 30
0.0
 10
140.664413
 20
213.680171
 30
0.0
 10
140.378600
 20
213.184573
 30
0.0
 10
140.378990
 20
212.648415
 30
0.0
  0
SPLINE
  5
15e
100
AcDbEntity
  8
0
 62
1
100
AcDbSpline
 70
8
 71
3
 72
8
 73
4
 74
0
 40
0
 40
0
 40
0
 40
0
 40
1
 40
1
 40
1
 40
1
 10
140.378990
 20
212.648415
 30
0.0
 10
140.378600
 20
212.112257
 30
0.0
 10
140.664413
 20
211.616659
 30
0.0
 10
141.128674
 20
211.348468
 30
0.0
  0
SPLINE
  5
15f
100
AcDbEntity
  8
0
 62
1
100
AcDbSpline
 70
8
 71
3
 72
8
 73
4
 74
0
 40
0
 40
0
 40
0
 40
0
 40
1
 40
1
 40
1
 40
1
 10
141.128674
 20
211.348468
 30
0.0
 10
141.592936
 20
211.080276
 30
0.0
 10
142.165043
 20
211.080276
 30
0.0
 10
142.629304
 20
211.348468
 30
0.0
  0
SPLINE
  5
160
100
AcDbEntity
  8
0
 62
1
100
AcDbSpline
 70
8
 71
3
 72
8
 73
4
 74
0
 40
0
 40
0
 40
0
 40
0
 40
1
 40
1
 40
1
 40
1
 10
142.629304
 20
211.348468
 30
0.0
 10
143.093566
 20
211.616659
 30
0.0
 10
143.379379
 20
212.112257
 30
0.0
 10
143.378989
 20
212.648415
 30
0.0
  0
LINE
  5
161
100
AcDbEntity
  8
0
 62
1
100
AcDbLine
 10
143.378989
 20
212.648415
 30
0.0
 11
143.378989
 21
212.648415
 31
0.0
  0
SPLINE
  5
162
100
AcDbEntity
  8
0
 62
1
100
AcDbSpline
 70
8
 71
3
 72
8
 73
4
 74
0
 40
0
 40
0
 40
0
 40
0
 40
1
 40
1
 40
1
 40
1
 10
62.550029
 20
212.648415
 30
0.0
 10
62.550419
 20
213.184573
 30
0.0
 10
62.264606
 20
213.680171
 30
0.0
 10
61.800345
 20
213.948362
 30
0.0
  0
SPLINE
  5
163
100
AcDbEntity
  8
0
 62
1
100
AcDbSpline
 70
8
 71
3
 72
8
 73
4
 74
0
 40
0
 40
0
 40
0
 40
0
 40
1
 40
1
 40
1
 40
1
 10
61.800345
 20
213.948362
 30
0.0
 10
61.336083
 20
214.216554
 30
0.0
 10
60.763976
 20
214.216554
 30
0.0
 10
60.299715
 20
213.948362
 30
0.0
  0
SPLINE
  5
164
100
AcDbEntity
  8
0
 62
1
100
AcDbSpline
 70
8
 71
3
 72
8
 73
4
 74
0
 40
0
 40
0
 40
0
 40
0
 40
1
 40
1
 40
1
 40
1
 10
60.299715
 20
213.948362
 30
0.0
 10
59.835453
 20
213.680171
 30
0.0
 10
59.549640
 20
213.184573
 30
0.0
 10
59.550030
 20
212.648415
 30
0.0
  0
SPLINE
  5
165
100
AcDbEntity
  8
0
 62
1
100
AcDbSpline
 70
8
 71
3
 72
8
 73
4
 74
0
 40
0
 40
0
 40
0
 40
0
 40
1
 40
1
 40
1
 40
1
 10
59.550030
 20
212.648415
 30
0.0
 10
59.549640
 20
212.112257
 30
0.0
 10
59.835453
 20
211.616659
 30
0.0
 10
60.299715
 20
211.348468
 30
0.0
  0
SPLINE
  5
166
100
AcDbEntity
  8
0
 62
1
100
AcDbSpline
 70
8
 71
3
 72
8
 73
4
 74
0
 40
0
 40
0
 40
0
 40
0
 40
1
 40
1
 40
1
 40
1
 10
60.299715
 20
211.348468
 30
0.0
 10
60.763976
 20
211.080276
 30
0.0
 10
61.336083
 20
211.080276
 30
0.0
 10
61.800345
 20
211.348468
 30
0.0
  0
SPLINE
  5
167
100
AcDbEntity
  8
0
 62
1
100
AcDbSpline
 70
8
 71
3
 72
8
 73
4
 74
0
 40
0
 40
0
 40
0
 40
0
 40
1
 40
1
 40
1
 40
1
 10
61.800345
 20
211.348468
 30
0.0
 10
62.264606
 20
211.616659
 30
0.0
 10
62.550419
 20
212.112257
 30
0.0
 10
62.550029
 20
212.648415
 30
0.0
  0
LINE
  5
168
100
AcDbEntity
  8
0
 62
1
100
AcDbLine
 10
62.550029
 20
212.648415
 30
0.0
 11
62.550029
 21
212.648415
 31
0.0
  0
SPLINE
  5
169
100
AcDbEntity
  8
0
 62
1
100
AcDbSpline
 70
8
 71
3
 72
8
 73
4
 74
0
 40
0
 40
0
 40
0
 40
0
 40
1
 40
1
 40
1
 40
1
 10
66.689936
 20
225.848075
 30
0.0
 10
66.690254
 20
226.384186
 30
0.0
 10
66.404425
 20
226.879709
 30
0.0
 10
65.940193
 20
227.147856
 30
0.0
  0
SPLINE
  5
16a
100
AcDbEntity
  8
0
 62
1
100
AcDbSpline
 70
8
 71
3
 72
8
 73
4
 74
0
 40
0
 40
0
 40
0
 40
0
 40
1
 40
1
 40
1
 40
1
 10
65.940193
 20
227.147856
 30
0.0
 10
65.475961
 20
227.416003
 30
0.0
 10
64.903911
 20
227.416003
 30
0.0
 10
64.439679
 20
227.147856
 30
0.0
  0
SPLINE
  5
16b
100
AcDbEntity
  8
0
 62
1
100
AcDbSpline
 70
8
 71
3
 72
8
 73
4
 74
0
 40
0
 40
0
 40
0
 40
0
 40
1
 40
1
 40
1
 40
1
 10
64.439679
 20
227.147856
 30
0.0
 10
63.975447
 20
226.879709
 30
0.0
 10
63.689618
 20
226.384186
 30
0.0
 10
63.689936
 20
225.848075
 30
0.0
  0
SPLINE
  5
16c
100
AcDbEntity
  8
0
 62
1
100
AcDbSpline
 70
8
 71
3
 72
8
 73
4
 74
0
 40
0
 40
0
 40
0
 40
0
 40
1
 40
1
 40
1
 40
1
 10
63.689936
 20
225.848075
 30
0.0
 10
63.689618
 20
225.311965
 30
0.0
 10
63.975447
 20
224.816442
 30
0.0
 10
64.439679
 20
224.548295
 30
0.0
  0
SPLINE
  5
16d
100
AcDbEntity
  8
0
 62
1
100
AcDbSpline
 70
8
 71
3
 72
8
 73
4
 74
0
 40
0
 40
0
 40
0
 40
0
 40
1
 40
1
 40
1
 40
1
 10
64.439679
 20
224.548295
 30
0.0
 10
64.903911
 20
224.280148
 30
0.0
 10
65.475961
 20
224.280148
 30
0.0
 10
65.940193
 20
224.548295
 30
0.0
  0
SPLINE
  5
16e
100
AcDbEntity
  8
0
 62
1
100
AcDbSpline
 70
8
 71
3
 72
8
 73
4
 74
0
 40
0
 40
0
 40
0
 40
0
 40
1
 40
1
 40
1
 40
1
 10
65.940193
 20
224.548295
 30
0.0
 10
66.404425
 20
224.816442
 30
0.0
 10
66.690254
 20
225.311965
 30
0.0
 10
66.689936
 20
225.848075
 30
0.0
  0
LINE
  5
16f
100
AcDbEntity
  8
0
 62
1
100
AcDbLine
 10
66.689936
 20
225.848075
 30
0.0
 11
66.689936
 21
225.848075
 31
0.0
  0
SPLINE
  5
170
100
AcDbEntity
  8
0
 62
1
100
AcDbSpline
 70
8
 71
3
 72
8
 73
4
 74
0
 40
0
 40
0
 40
0
 40
0
 40
1
 40
1
 40
1
 40
1
 10
29.689936
 20
225.848075
 30
0.0
 10
29.690326
 20
226.384234
 30
0.0
 10
29.404513
 20
226.879831
 30
0.0
 10
28.940251
 20
227.148023
 30
0.0
  0
SPLINE
  5
171
100
AcDbEntity
  8
0
 62
1
100
AcDbSpline
 70
8
 71
3
 72
8
 73
4
 74
0
 40
0
 40
0
 40
0
 40
0
 40
1
 40
1
 40
1
 40
1
 10
28.940251
 20
227.148023
 30
0.0
 10
28.475989
 20
227.416215
 30
0.0
 10
27.903883
 20
227.416215
 30
0.0
 10
27.439621
 20
227.148023
 30
0.0
  0
SPLINE
  5
172
100
AcDbEntity
  8
0
 62
1
100
AcDbSpline
 70
8
 71
3
 72
8
 73
4
 74
0
 40
0
 40
0
 40
0
 40
0
 40
1
 40
1
 40
1
 40
1
 10
27.439621
 20
227.148023
 30
0.0
 10
26.975359
 20
226.879831
 30
0.0
 10
26.689546
 20
226.384234
 30
0.0
 10
26.689936
 20
225.848075
 30
0.0
  0
SPLINE
  5
173
100
AcDbEntity
  8
0
 62
1
100
AcDbSpline
 70
8
 71
3
 72
8
 73
4
 74
0
 40
0
 40
0
 40
0
 40
0
 40
1
 40
1
 40
1
 40
1
 10
26.689936
 20
225.848075
 30
0.0
 10
26.689546
 20
225.311917
 30
0.0
 10
26.975359
 20
224.816320
 30
0.0
 10
27.439621
 20
224.548128
 30
0.0
  0
SPLINE
  5
174
100
AcDbEntity
  8
0
 62
1
100
AcDbSpline
 70
8
 71
3
 72
8
 73
4
 74
0
 40
0
 40
0
 40
0
 40
0
 40
1
 40
1
 40
1
 40
1
 10
27.439621
 20
224.548128
 30
0.0
 10
27.903883
 20
224.279936
 30
0.0
 10
28.475989
 20
224.279936
 30
0.0
 10
28.940251
 20
224.548128
 30
0.0
  0
SPLINE
  5
175
100
AcDbEntity
  8
0
 62
1
100
AcDbSpline
 70
8
 71
3
 72
8
 73
4
 74
0
 40
0
 40
0
 40
0
 40
0
 40
1
 40
1
 40
1
 40
1
 10
28.940251
 20
224.548128
 30
0.0
 10
29.404513
 20
224.816320
 30
0.0
 10
29.690326
 20
225.311917
 30
0.0
 10
29.689936
 20
225.848075
 30
0.0
  0
LINE
  5
176
100
AcDbEntity
  8
0
 62
1
100
AcDbLine
 10
29.689936
 20
225.848075
 30
0.0
 11
29.689936
 21
225.848075
 31
0.0
  0
SPLINE
  5
177
100
AcDbEntity
  8
0
 62
1
100
AcDbSpline
 70
8
 71
3
 72
8
 73
4
 74
0
 40
0
 40
0
 40
0
 40
0
 40
1
 40
1
 40
1
 40
1
 10
66.689936
 20
262.848075
 30
0.0
 10
66.690254
 20
263.384186
 30
0.0
 10
66.404425
 20
263.879709
 30
0.0
 10
65.940193
 20
264.147856
 30
0.0
  0
SPLINE
  5
178
100
AcDbEntity
  8
0
 62
1
100
AcDbSpline
 70
8
 71
3
 72
8
 73
4
 74
0
 40
0
 40
0
 40
0
 40
0
 40
1
 40
1
 40
1
 40
1
 10
65.940193
 20
264.147856
 30
0.0
 10
65.475961
 20
264.416003
 30
0.0
 10
64.903911
 20
264.416003
 30
0.0
 10
64.439679
 20
264.147856
 30
0.0
  0
SPLINE
  5
179
100
AcDbEntity
  8
0
 62
1
100
AcDbSpline
 70
8
 71
3
 72
8
 73
4
 74
0
 40
0
 40
0
 40
0
 40
0
 40
1
 40
1
 40
1
 40
1
 10
64.439679
 20
264.147856
 30
0.0
 10
63.975447
 20
263.879709
 30
0.0
 10
63.689618
 20
263.384186
 30
0.0
 10
63.689936
 20
262.848075
 30
0.0
  0
SPLINE
  5
17a
100
AcDbEntity
  8
0
 62
1
100
AcDbSpline
 70
8
 71
3
 72
8
 73
4
 74
0
 40
0
 40
0
 40
0
 40
0
 40
1
 40
1
 40
1
 40
1
 10
63.689936
 20
262.848075
 30
0.0
 10
63.689618
 20
262.311965
 30
0.0
 10
63.975447
 20
261.816442
 30
0.0
 10
64.439679
 20
261.548295
 30
0.0
  0
SPLINE
  5
17b
100
AcDbEntity
  8
0
 62
1
100
AcDbSpline
 70
8
 71
3
 72
8
 73
4
 74
0
 40
0
 40
0
 40
0
 40
0
 40
1
 40
1
 40
1
 40
1
 10
64.439679
 20
261.548295
 30
0.0
 10
64.903911
 20
261.280148
 30
0.0
 10
65.475961
 20
261.280148
 30
0.0
 10
65.940193
 20
261.548295
 30
0.0
  0
SPLINE
  5
17c
100
AcDbEntity
  8
0
 62
1
100
AcDbSpline
 70
8
 71
3
 72
8
 73
4
 74
0
 40
0
 40
0
 40
0
 40
0
 40
1
 40
1
 40
1
 40
1
 10
65.940193
 20
261.548295
 30
0.0
 10
66.404425
 20
261.816442
 30
0.0
 10
66.690254
 20
262.311965
 30
0.0
 10
66.689936
 20
262.848075
 30
0.0
  0
LINE
  5
17d
100
AcDbEntity
  8
0
 62
1
100
AcDbLine
 10
66.689936
 20
262.848075
 30
0.0
 11
66.689936
 21
262.848075
 31
0.0
  0
SPLINE
  5
17e
100
AcDbEntity
  8
0
 62
1
100
AcDbSpline
 70
8
 71
3
 72
8
 73
4
 74
0
 40
0
 40
0
 40
0
 40
0
 40
1
 40
1
 40
1
 40
1
 10
91.241787
 20
91.772217
 30
0.0
 10
91.241787
 20
92.308116
 30
0.0
 10
90.955889
 20
92.803307
 30
0.0
 10
90.491787
 20
93.071256
 30
0.0
  0
SPLINE
  5
17f
100
AcDbEntity
  8
0
 62
1
100
AcDbSpline
 70
8
 71
3
 72
8
 73
4
 74
0
 40
0
 40
0
 40
0
 40
0
 40
1
 40
1
 40
1
 40
1
 10
90.491787
 20
93.071256
 30
0.0
 10
90.027685
 20
93.339206
 30
0.0
 10
89.455888
 20
93.339206
 30
0.0
 10
88.991786
 20
93.071256
 30
0.0
  0
SPLINE
  5
180
100
AcDbEntity
  8
0
 62
1
100
AcDbSpline
 70
8
 71
3
 72
8
 73
4
 74
0
 40
0
 40
0
 40
0
 40
0
 40
1
 40
1
 40
1
 40
1
 10
88.991786
 20
93.071256
 30
0.0
 10
88.527684
 20
92.803307
 30
0.0
 10
88.241785
 20
92.308116
 30
0.0
 10
88.241785
 20
91.772217
 30
0.0
  0
SPLINE
  5
181
100
AcDbEntity
  8
0
 62
1
100
AcDbSpline
 70
8
 71
3
 72
8
 73
4
 74
0
 40
0
 40
0
 40
0
 40
0
 40
1
 40
1
 40
1
 40
1
 10
88.241785
 20
91.772217
 30
0.0
 10
88.241785
 20
91.236319
 30
0.0
 10
88.527684
 20
90.741128
 30
0.0
 10
88.991786
 20
90.473179
 30
0.0
  0
SPLINE
  5
182
100
AcDbEntity
  8
0
 62
1
100
AcDbSpline
 70
8
 71
3
 72
8
 73
4
 74
0
 40
0
 40
0
 40
0
 40
0
 40
1
 40
1
 40
1
 40
1
 10
88.991786
 20
90.473179
 30
0.0
 10
89.455888
 20
90.205229
 30
0.0
 10
90.027685
 20
90.205229
 30
0.0
 10
90.491787
 20
90.473179
 30
0.0
  0
SPLINE
  5
183
100
AcDbEntity
  8
0
 62
1
100
AcDbSpline
 70
8
 71
3
 72
8
 73
4
 74
0
 40
0
 40
0
 40
0
 40
0
 40
1
 40
1
 40
1
 40
1
 10
90.491787
 20
90.473179
 30
0.0
 10
90.955889
 20
90.741128
 30
0.0
 10
91.241787
 20
91.236319
 30
0.0
 10
91.241787
 20
91.772217
 30
0.0
  0
LINE
  5
184
100
AcDbEntity
  8
0
 62
1
100
AcDbLine
 10
91.241787
 20
91.772217
 30
0.0
 11
91.241787
 21
91.772217
 31
0.0
  0
SPLINE
  5
185
100
AcDbEntity
  8
0
 62
1
100
AcDbSpline
 70
8
 71
3
 72
8
 73
4
 74
0
 40
0
 40
0
 40
0
 40
0
 40
1
 40
1
 40
1
 40
1
 10
120.195954
 20
178.259741
 30
0.0
 10
120.196344
 20
178.795899
 30
0.0
 10
119.910531
 20
179.291497
 30
0.0
 10
119.446269
 20
179.559689
 30
0.0
  0
SPLINE
  5
186
100
AcDbEntity
  8
0
 62
1
100
AcDbSpline
 70
8
 71
3
 72
8
 73
4
 74
0
 40
0
 40
0
 40
0
 40
0
 40
1
 40
1
 40
1
 40
1
 10
119.446269
 20
179.559689
 30
0.0
 10
118.982007
 20
179.827880
 30
0.0
 10
118.409901
 20
179.827880
 30
0.0
 10
117.945639
 20
179.559689
 30
0.0
  0
SPLINE
  5
187
100
AcDbEntity
  8
0
 62
1
100
AcDbSpline
 70
8
 71
3
 72
8
 73
4
 74
0
 40
0
 40
0
 40
0
 40
0
 40
1
 40
1
 40
1
 40
1
 10
117.945639
 20
179.559689
 30
0.0
 10
117.481378
 20
179.291497
 30
0.0
 10
117.195565
 20
178.795899
 30
0.0
 10
117.195955
 20
178.259741
 30
0.0
  0
SPLINE
  5
188
100
AcDbEntity
  8
0
 62
1
100
AcDbSpline
 70
8
 71
3
 72
8
 73
4
 74
0
 40
0
 40
0
 40
0
 40
0
 40
1
 40
1
 40
1
 40
1
 10
117.195955
 20
178.259741
 30
0.0
 10
117.195565
 20
177.723583
 30
0.0
 10
117.481378
 20
177.227986
 30
0.0
 10
117.945639
 20
176.959794
 30
0.0
  0
SPLINE
  5
189
100
AcDbEntity
  8
0
 62
1
100
AcDbSpline
 70
8
 71
3
 72
8
 73
4
 74
0
 40
0
 40
0
 40
0
 40
0
 40
1
 40
1
 40
1
 40
1
 10
117.945639
 20
176.959794
 30
0.0
 10
118.409901
 20
176.691602
 30
0.0
 10
118.982007
 20
176.691602
 30
0.0
 10
119.446269
 20
176.959794
 30
0.0
  0
SPLINE
  5
18a
100
AcDbEntity
  8
0
 62
1
100
AcDbSpline
 70
8
 71
3
 72
8
 73
4
 74
0
 40
0
 40
0
 40
0
 40
0
 40
1
 40
1
 40
1
 40
1
 10
119.446269
 20
176.959794
 30
0.0
 10
119.910531
 20
177.227986
 30
0.0
 10
120.196344
 20
177.723583
 30
0.0
 10
120.195954
 20
178.259741
 30
0.0
  0
LINE
  5
18b
100
AcDbEntity
  8
0
 62
1
100
AcDbLine
 10
120.195954
 20
178.259741
 30
0.0
 11
120.195954
 21
178.259741
 31
0.0
  0
SPLINE
  5
18c
100
AcDbEntity
  8
0
 62
1
100
AcDbSpline
 70
8
 71
3
 72
8
 73
4
 74
0
 40
0
 40
0
 40
0
 40
0
 40
1
 40
1
 40
1
 40
1
 10
120.195954
 20
154.691735
 30
0.0
 10
120.196344
 20
155.227893
 30
0.0
 10
119.910531
 20
155.723491
 30
0.0
 10
119.446269
 20
155.991682
 30
0.0
  0
SPLINE
  5
18d
100
AcDbEntity
  8
0
 62
1
100
AcDbSpline
 70
8
 71
3
 72
8
 73
4
 74
0
 40
0
 40
0
 40
0
 40
0
 40
1
 40
1
 40
1
 40
1
 10
119.446269
 20
155.991682
 30
0.0
 10
118.982007
 20
156.259874
 30
0.0
 10
118.409901
 20
156.259874
 30
0.0
 10
117.945639
 20
155.991682
 30
0.0
  0
SPLINE
  5
18e
100
AcDbEntity
  8
0
 62
1
100
AcDbSpline
 70
8
 71
3
 72
8
 73
4
 74
0
 40
0
 40
0
 40
0
 40
0
 40
1
 40
1
 40
1
 40
1
 10
117.945639
 20
155.991682
 30
0.0
 10
117.481378
 20
155.723491
 30
0.0
 10
117.195565
 20
155.227893
 30
0.0
 10
117.195955
 20
154.691735
 30
0.0
  0
SPLINE
  5
18f
100
AcDbEntity
  8
0
 62
1
100
AcDbSpline
 70
8
 71
3
 72
8
 73
4
 74
0
 40
0
 40
0
 40
0
 40
0
 40
1
 40
1
 40
1
 40
1
 10
117.195955
 20
154.691735
 30
0.0
 10
117.195565
 20
154.155577
 30
0.0
 10
117.481378
 20
153.659979
 30
0.0
 10
117.945639
 20
153.391787
 30
0.0
  0
SPLINE
  5
190
100
AcDbEntity
  8
0
 62
1
100
AcDbSpline
 70
8
 71
3
 72
8
 73
4
 74
0
 40
0
 40
0
 40
0
 40
0
 40
1
 40
1
 40
1
 40
1
 10
117.945639
 20
153.391787
 30
0.0
 10
118.409901
 20
153.123596
 30
0.0
 10
118.982007
 20
153.123596
 30
0.0
 10
119.446269
 20
153.391787
 30
0.0
  0
SPLINE
  5
191
100
AcDbEntity
  8
0
 62
1
100
AcDbSpline
 70
8
 71
3
 72
8
 73
4
 74
0
 40
0
 40
0
 40
0
 40
0
 40
1
 40
1
 40
1
 40
1
 10
119.446269
 20
153.391787
 30
0.0
 10
119.910531
 20
153.659979
 30
0.0
 10
120.196344
 20
154.155577
 30
0.0
 10
120.195954
 20
154.691735
 30
0.0
  0
LINE
  5
192
100
AcDbEntity
  8
0
 62
1
100
AcDbLine
 10
120.195954
 20
154.691735
 30
0.0
 11
120.195954
 21
154.691735
 31
0.0
  0
SPLINE
  5
193
100
AcDbEntity
  8
0
 62
1
100
AcDbSpline
 70
8
 71
3
 72
8
 73
4
 74
0
 40
0
 40
0
 40
0
 40
0
 40
1
 40
1
 40
1
 40
1
 10
85.733067
 20
154.691735
 30
0.0
 10
85.733067
 20
155.227634
 30
0.0
 10
85.447169
 20
155.722824
 30
0.0
 10
84.983067
 20
155.990774
 30
0.0
  0
SPLINE
  5
194
100
AcDbEntity
  8
0
 62
1
100
AcDbSpline
 70
8
 71
3
 72
8
 73
4
 74
0
 40
0
 40
0
 40
0
 40
0
 40
1
 40
1
 40
1
 40
1
 10
84.983067
 20
155.990774
 30
0.0
 10
84.518965
 20
156.258723
 30
0.0
 10
83.947168
 20
156.258723
 30
0.0
 10
83.483066
 20
155.990774
 30
0.0
  0
SPLINE
  5
195
100
AcDbEntity
  8
0
 62
1
100
AcDbSpline
 70
8
 71
3
 72
8
 73
4
 74
0
 40
0
 40
0
 40
0
 40
0
 40
1
 40
1
 40
1
 40
1
 10
83.483066
 20
155.990774
 30
0.0
 10
83.018964
 20
155.722824
 30
0.0
 10
82.733065
 20
155.227634
 30
0.0
 10
82.733065
 20
154.691735
 30
0.0
  0
SPLINE
  5
196
100
AcDbEntity
  8
0
 62
1
100
AcDbSpline
 70
8
 71
3
 72
8
 73
4
 74
0
 40
0
 40
0
 40
0
 40
0
 40
1
 40
1
 40
1
 40
1
 10
82.733065
 20
154.691735
 30
0.0
 10
82.733065
 20
154.155836
 30
0.0
 10
83.018964
 20
153.660645
 30
0.0
 10
83.483066
 20
153.392696
 30
0.0
  0
SPLINE
  5
197
100
AcDbEntity
  8
0
 62
1
100
AcDbSpline
 70
8
 71
3
 72
8
 73
4
 74
0
 40
0
 40
0
 40
0
 40
0
 40
1
 40
1
 40
1
 40
1
 10
83.483066
 20
153.392696
 30
0.0
 10
83.947168
 20
153.124747
 30
0.0
 10
84.518965
 20
153.124747
 30
0.0
 10
84.983067
 20
153.392696
 30
0.0
  0
SPLINE
  5
198
100
AcDbEntity
  8
0
 62
1
100
AcDbSpline
 70
8
 71
3
 72
8
 73
4
 74
0
 40
0
 40
0
 40
0
 40
0
 40
1
 40
1
 40
1
 40
1
 10
84.983067
 20
153.392696
 30
0.0
 10
85.447169
 20
153.660645
 30
0.0
 10
85.733067
 20
154.155836
 30
0.0
 10
85.733067
 20
154.691735
 30
0.0
  0
LINE
  5
199
100
AcDbEntity
  8
0
 62
1
100
AcDbLine
 10
85.733067
 20
154.691735
 30
0.0
 11
85.733067
 21
154.691735
 31
0.0
  0
SPLINE
  5
19a
100
AcDbEntity
  8
0
 62
1
100
AcDbSpline
 70
8
 71
3
 72
8
 73
4
 74
0
 40
0
 40
0
 40
0
 40
0
 40
1
 40
1
 40
1
 40
1
 10
65.118591
 20
182.896273
 30
0.0
 10
65.118981
 20
183.432431
 30
0.0
 10
64.833168
 20
183.928029
 30
0.0
 10
64.368907
 20
184.196221
 30
0.0
  0
SPLINE
  5
19b
100
AcDbEntity
  8
0
 62
1
100
AcDbSpline
 70
8
 71
3
 72
8
 73
4
 74
0
 40
0
 40
0
 40
0
 40
0
 40
1
 40
1
 40
1
 40
1
 10
64.368907
 20
184.196221
 30
0.0
 10
63.904645
 20
184.464412
 30
0.0
 10
63.332538
 20
184.464412
 30
0.0
 10
62.868277
 20
184.196221
 30
0.0
  0
SPLINE
  5
19c
100
AcDbEntity
  8
0
 62
1
100
AcDbSpline
 70
8
 71
3
 72
8
 73
4
 74
0
 40
0
 40
0
 40
0
 40
0
 40
1
 40
1
 40
1
 40
1
 10
62.868277
 20
184.196221
 30
0.0
 10
62.404015
 20
183.928029
 30
0.0
 10
62.118202
 20
183.432431
 30
0.0
 10
62.118592
 20
182.896273
 30
0.0
  0
SPLINE
  5
19d
100
AcDbEntity
  8
0
 62
1
100
AcDbSpline
 70
8
 71
3
 72
8
 73
4
 74
0
 40
0
 40
0
 40
0
 40
0
 40
1
 40
1
 40
1
 40
1
 10
62.118592
 20
182.896273
 30
0.0
 10
62.118202
 20
182.360115
 30
0.0
 10
62.404015
 20
181.864518
 30
0.0
 10
62.868277
 20
181.596326
 30
0.0
  0
SPLINE
  5
19e
100
AcDbEntity
  8
0
 62
1
100
AcDbSpline
 70
8
 71
3
 72
8
 73
4
 74
0
 40
0
 40
0
 40
0
 40
0
 40
1
 40
1
 40
1
 40
1
 10
62.868277
 20
181.596326
 30
0.0
 10
63.332538
 20
181.328134
 30
0.0
 10
63.904645
 20
181.328134
 30
0.0
 10
64.368907
 20
181.596326
 30
0.0
  0
SPLINE
  5
19f
100
AcDbEntity
  8
0
 62
1
100
AcDbSpline
 70
8
 71
3
 72
8
 73
4
 74
0
 40
0
 40
0
 40
0
 40
0
 40
1
 40
1
 40
1
 40
1
 10
64.368907
 20
181.596326
 30
0.0
 10
64.833168
 20
181.864518
 30
0.0
 10
65.118981
 20
182.360115
 30
0.0
 10
65.118591
 20
182.896273
 30
0.0
  0
LINE
  5
1a0
100
AcDbEntity
  8
0
 62
1
100
AcDbLine
 10
65.118591
 20
182.896273
 30
0.0
 11
65.118591
 21
182.896273
 31
0.0
  0
SPLINE
  5
1a1
100
AcDbEntity
  8
0
 62
1
100
AcDbSpline
 70
8
 71
3
 72
8
 73
4
 74
0
 40
0
 40
0
 40
0
 40
0
 40
1
 40
1
 40
1
 40
1
 10
114.687234
 20
111.772217
 30
0.0
 10
114.687624
 20
112.308375
 30
0.0
 10
114.401811
 20
112.803973
 30
0.0
 10
113.937549
 20
113.072165
 30
0.0
  0
SPLINE
  5
1a2
100
AcDbEntity
  8
0
 62
1
100
AcDbSpline
 70
8
 71
3
 72
8
 73
4
 74
0
 40
0
 40
0
 40
0
 40
0
 40
1
 40
1
 40
1
 40
1
 10
113.937549
 20
113.072165
 30
0.0
 10
113.473287
 20
113.340356
 30
0.0
 10
112.901181
 20
113.340356
 30
0.0
 10
112.436919
 20
113.072165
 30
0.0
  0
SPLINE
  5
1a3
100
AcDbEntity
  8
0
 62
1
100
AcDbSpline
 70
8
 71
3
 72
8
 73
4
 74
0
 40
0
 40
0
 40
0
 40
0
 40
1
 40
1
 40
1
 40
1
 10
112.436919
 20
113.072165
 30
0.0
 10
111.972657
 20
112.803973
 30
0.0
 10
111.686844
 20
112.308375
 30
0.0
 10
111.687234
 20
111.772217
 30
0.0
  0
SPLINE
  5
1a4
100
AcDbEntity
  8
0
 62
1
100
AcDbSpline
 70
8
 71
3
 72
8
 73
4
 74
0
 40
0
 40
0
 40
0
 40
0
 40
1
 40
1
 40
1
 40
1
 10
111.687234
 20
111.772217
 30
0.0
 10
111.686844
 20
111.236059
 30
0.0
 10
111.972657
 20
110.740461
 30
0.0
 10
112.436919
 20
110.472270
 30
0.0
  0
SPLINE
  5
1a5
100
AcDbEntity
  8
0
 62
1
100
AcDbSpline
 70
8
 71
3
 72
8
 73
4
 74
0
 40
0
 40
0
 40
0
 40
0
 40
1
 40
1
 40
1
 40
1
 10
112.436919
 20
110.472270
 30
0.0
 10
112.901181
 20
110.204078
 30
0.0
 10
113.473287
 20
110.204078
 30
0.0
 10
113.937549
 20
110.472270
 30
0.0
  0
SPLINE
  5
1a6
100
AcDbEntity
  8
0
 62
1
100
AcDbSpline
 70
8
 71
3
 72
8
 73
4
 74
0
 40
0
 40
0
 40
0
 40
0
 40
1
 40
1
 40
1
 40
1
 10
113.937549
 20
110.472270
 30
0.0
 10
114.401811
 20
110.740461
 30
0.0
 10
114.687624
 20
111.236059
 30
0.0
 10
114.687234
 20
111.772217
 30
0.0
  0
LINE
  5
1a7
100
AcDbEntity
  8
0
 62
1
100
AcDbLine
 10
114.687234
 20
111.772217
 30
0.0
 11
114.687234
 21
111.772217
 31
0.0
  0
SPLINE
  5
1a8
100
AcDbEntity
  8
0
 62
1
100
AcDbSpline
 70
8
 71
3
 72
8
 73
4
 74
0
 40
0
 40
0
 40
0
 40
0
 40
1
 40
1
 40
1
 40
1
 10
114.687234
 20
91.772217
 30
0.0
 10
114.687624
 20
92.308376
 30
0.0
 10
114.401811
 20
92.803973
 30
0.0
 10
113.937549
 20
93.072165
 30
0.0
  0
SPLINE
  5
1a9
100
AcDbEntity
  8
0
 62
1
100
AcDbSpline
 70
8
 71
3
 72
8
 73
4
 74
0
 40
0
 40
0
 40
0
 40
0
 40
1
 40
1
 40
1
 40
1
 10
113.937549
 20
93.072165
 30
0.0
 10
113.473287
 20
93.340357
 30
0.0
 10
112.901181
 20
93.340357
 30
0.0
 10
112.436919
 20
93.072165
 30
0.0
  0
SPLINE
  5
1aa
100
AcDbEntity
  8
0
 62
1
100
AcDbSpline
 70
8
 71
3
 72
8
 73
4
 74
0
 40
0
 40
0
 40
0
 40
0
 40
1
 40
1
 40
1
 40
1
 10
112.436919
 20
93.072165
 30
0.0
 10
111.972657
 20
92.803973
 30
0.0
 10
111.686844
 20
92.308376
 30
0.0
 10
111.687234
 20
91.772217
 30
0.0
  0
SPLINE
  5
1ab
100
AcDbEntity
  8
0
 62
1
100
AcDbSpline
 70
8
 71
3
 72
8
 73
4
 74
0
 40
0
 40
0
 40
0
 40
0
 40
1
 40
1
 40
1
 40
1
 10
111.687234
 20
91.772217
 30
0.0
 10
111.686844
 20
91.236059
 30
0.0
 10
111.972657
 20
90.740462
 30
0.0
 10
112.436919
 20
90.472270
 30
0.0
  0
SPLINE
  5
1ac
100
AcDbEntity
  8
0
 62
1
100
AcDbSpline
 70
8
 71
3
 72
8
 73
4
 74
0
 40
0
 40
0
 40
0
 40
0
 40
1
 40
1
 40
1
 40
1
 10
112.436919
 20
90.472270
 30
0.0
 10
112.901181
 20
90.204078
 30
0.0
 10
113.473287
 20
90.204078
 30
0.0
 10
113.937549
 20
90.472270
 30
0.0
  0
SPLINE
  5
1ad
100
AcDbEntity
  8
0
 62
1
100
AcDbSpline
 70
8
 71
3
 72
8
 73
4
 74
0
 40
0
 40
0
 40
0
 40
0
 40
1
 40
1
 40
1
 40
1
 10
113.937549
 20
90.472270
 30
0.0
 10
114.401811
 20
90.740462
 30
0.0
 10
114.687624
 20
91.236059
 30
0.0
 10
114.687234
 20
91.772217
 30
0.0
  0
LINE
  5
1ae
100
AcDbEntity
  8
0
 62
1
100
AcDbLine
 10
114.687234
 20
91.772217
 30
0.0
 11
114.687234
 21
91.772217
 31
0.0
  0
SPLINE
  5
1af
100
AcDbEntity
  8
0
 62
1
100
AcDbSpline
 70
8
 71
3
 72
8
 73
4
 74
0
 40
0
 40
0
 40
0
 40
0
 40
1
 40
1
 40
1
 40
1
 10
91.241787
 20
111.772217
 30
0.0
 10
91.241787
 20
112.308116
 30
0.0
 10
90.955889
 20
112.803307
 30
0.0
 10
90.491787
 20
113.071256
 30
0.0
  0
SPLINE
  5
1b0
100
AcDbEntity
  8
0
 62
1
100
AcDbSpline
 70
8
 71
3
 72
8
 73
4
 74
0
 40
0
 40
0
 40
0
 40
0
 40
1
 40
1
 40
1
 40
1
 10
90.491787
 20
113.071256
 30
0.0
 10
90.027685
 20
113.339205
 30
0.0
 10
89.455888
 20
113.339205
 30
0.0
 10
88.991786
 20
113.071256
 30
0.0
  0
SPLINE
  5
1b1
100
AcDbEntity
  8
0
 62
1
100
AcDbSpline
 70
8
 71
3
 72
8
 73
4
 74
0
 40
0
 40
0
 40
0
 40
0
 40
1
 40
1
 40
1
 40
1
 10
88.991786
 20
113.071256
 30
0.0
 10
88.527684
 20
112.803307
 30
0.0
 10
88.241785
 20
112.308116
 30
0.0
 10
88.241785
 20
111.772217
 30
0.0
  0
SPLINE
  5
1b2
100
AcDbEntity
  8
0
 62
1
100
AcDbSpline
 70
8
 71
3
 72
8
 73
4
 74
0
 40
0
 40
0
 40
0
 40
0
 40
1
 40
1
 40
1
 40
1
 10
88.241785
 20
111.772217
 30
0.0
 10
88.241785
 20
111.236318
 30
0.0
 10
88.527684
 20
110.741128
 30
0.0
 10
88.991786
 20
110.473178
 30
0.0
  0
SPLINE
  5
1b3
100
AcDbEntity
  8
0
 62
1
100
AcDbSpline
 70
8
 71
3
 72
8
 73
4
 74
0
 40
0
 40
0
 40
0
 40
0
 40
1
 40
1
 40
1
 40
1
 10
88.991786
 20
110.473178
 30
0.0
 10
89.455888
 20
110.205229
 30
0.0
 10
90.027685
 20
110.205229
 30
0.0
 10
90.491787
 20
110.473178
 30
0.0
  0
SPLINE
  5
1b4
100
AcDbEntity
  8
0
 62
1
100
AcDbSpline
 70
8
 71
3
 72
8
 73
4
 74
0
 40
0
 40
0
 40
0
 40
0
 40
1
 40
1
 40
1
 40
1
 10
90.491787
 20
110.473178
 30
0.0
 10
90.955889
 20
110.741128
 30
0.0
 10
91.241787
 20
111.236318
 30
0.0
 10
91.241787
 20
111.772217
 30
0.0
  0
LINE
  5
1b5
100
AcDbEntity
  8
0
 62
1
100
AcDbLine
 10
91.241787
 20
111.772217
 30
0.0
 11
91.241787
 21
111.772217
 31
0.0
  0
SPLINE
  5
1b6
100
AcDbEntity
  8
0
 62
1
100
AcDbSpline
 70
8
 71
3
 72
8
 73
4
 74
0
 40
0
 40
0
 40
0
 40
0
 40
1
 40
1
 40
1
 40
1
 10
85.733067
 20
178.259741
 30
0.0
 10
85.733067
 20
178.795640
 30
0.0
 10
85.447169
 20
179.290831
 30
0.0
 10
84.983067
 20
179.558780
 30
0.0
  0
SPLINE
  5
1b7
100
AcDbEntity
  8
0
 62
1
100
AcDbSpline
 70
8
 71
3
 72
8
 73
4
 74
0
 40
0
 40
0
 40
0
 40
0
 40
1
 40
1
 40
1
 40
1
 10
84.983067
 20
179.558780
 30
0.0
 10
84.518965
 20
179.826730
 30
0.0
 10
83.947168
 20
179.826730
 30
0.0
 10
83.483066
 20
179.558780
 30
0.0
  0
SPLINE
  5
1b8
100
AcDbEntity
  8
0
 62
1
100
AcDbSpline
 70
8
 71
3
 72
8
 73
4
 74
0
 40
0
 40
0
 40
0
 40
0
 40
1
 40
1
 40
1
 40
1
 10
83.483066
 20
179.558780
 30
0.0
 10
83.018964
 20
179.290831
 30
0.0
 10
82.733065
 20
178.795640
 30
0.0
 10
82.733065
 20
178.259741
 30
0.0
  0
SPLINE
  5
1b9
100
AcDbEntity
  8
0
 62
1
100
AcDbSpline
 70
8
 71
3
 72
8
 73
4
 74
0
 40
0
 40
0
 40
0
 40
0
 40
1
 40
1
 40
1
 40
1
 10
82.733065
 20
178.259741
 30
0.0
 10
82.733065
 20
177.723843
 30
0.0
 10
83.018964
 20
177.228652
 30
0.0
 10
83.483066
 20
176.960702
 30
0.0
  0
SPLINE
  5
1ba
100
AcDbEntity
  8
0
 62
1
100
AcDbSpline
 70
8
 71
3
 72
8
 73
4
 74
0
 40
0
 40
0
 40
0
 40
0
 40
1
 40
1
 40
1
 40
1
 10
83.483066
 20
176.960702
 30
0.0
 10
83.947168
 20
176.692753
 30
0.0
 10
84.518965
 20
176.692753
 30
0.0
 10
84.983067
 20
176.960702
 30
0.0
  0
SPLINE
  5
1bb
100
AcDbEntity
  8
0
 62
1
100
AcDbSpline
 70
8
 71
3
 72
8
 73
4
 74
0
 40
0
 40
0
 40
0
 40
0
 40
1
 40
1
 40
1
 40
1
 10
84.983067
 20
176.960702
 30
0.0
 10
85.447169
 20
177.228652
 30
0.0
 10
85.733067
 20
177.723843
 30
0.0
 10
85.733067
 20
178.259741
 30
0.0
  0
LINE
  5
1bc
100
AcDbEntity
  8
0
 62
1
100
AcDbLine
 10
85.733067
 20
178.259741
 30
0.0
 11
85.733067
 21
178.259741
 31
0.0
  0
SPLINE
  5
1bd
100
AcDbEntity
  8
0
 62
1
100
AcDbSpline
 70
8
 71
3
 72
8
 73
4
 74
0
 40
0
 40
0
 40
0
 40
0
 40
1
 40
1
 40
1
 40
1
 10
134.044367
 20
150.055203
 30
0.0
 10
134.044367
 20
150.591102
 30
0.0
 10
133.758469
 20
151.086293
 30
0.0
 10
133.294367
 20
151.354242
 30
0.0
  0
SPLINE
  5
1be
100
AcDbEntity
  8
0
 62
1
100
AcDbSpline
 70
8
 71
3
 72
8
 73
4
 74
0
 40
0
 40
0
 40
0
 40
0
 40
1
 40
1
 40
1
 40
1
 10
133.294367
 20
151.354242
 30
0.0
 10
132.830265
 20
151.622191
 30
0.0
 10
132.258468
 20
151.622191
 30
0.0
 10
131.794366
 20
151.354242
 30
0.0
  0
SPLINE
  5
1bf
100
AcDbEntity
  8
0
 62
1
100
AcDbSpline
 70
8
 71
3
 72
8
 73
4
 74
0
 40
0
 40
0
 40
0
 40
0
 40
1
 40
1
 40
1
 40
1
 10
131.794366
 20
151.354242
 30
0.0
 10
131.330264
 20
151.086293
 30
0.0
 10
131.044365
 20
150.591102
 30
0.0
 10
131.044365
 20
150.055203
 30
0.0
  0
SPLINE
  5
1c0
100
AcDbEntity
  8
0
 62
1
100
AcDbSpline
 70
8
 71
3
 72
8
 73
4
 74
0
 40
0
 40
0
 40
0
 40
0
 40
1
 40
1
 40
1
 40
1
 10
131.044365
 20
150.055203
 30
0.0
 10
131.044365
 20
149.519304
 30
0.0
 10
131.330264
 20
149.024113
 30
0.0
 10
131.794366
 20
148.756164
 30
0.0
  0
SPLINE
  5
1c1
100
AcDbEntity
  8
0
 62
1
100
AcDbSpline
 70
8
 71
3
 72
8
 73
4
 74
0
 40
0
 40
0
 40
0
 40
0
 40
1
 40
1
 40
1
 40
1
 10
131.794366
 20
148.756164
 30
0.0
 10
132.258468
 20
148.488215
 30
0.0
 10
132.830265
 20
148.488215
 30
0.0
 10
133.294367
 20
148.756164
 30
0.0
  0
SPLINE
  5
1c2
100
AcDbEntity
  8
0
 62
1
100
AcDbSpline
 70
8
 71
3
 72
8
 73
4
 74
0
 40
0
 40
0
 40
0
 40
0
 40
1
 40
1
 40
1
 40
1
 10
133.294367
 20
148.756164
 30
0.0
 10
133.758469
 20
149.024113
 30
0.0
 10
134.044367
 20
149.519304
 30
0.0
 10
134.044367
 20
150.055203
 30
0.0
  0
LINE
  5
1c3
100
AcDbEntity
  8
0
 62
1
100
AcDbLine
 10
134.044367
 20
150.055203
 30
0.0
 11
134.044367
 21
150.055203
 31
0.0
  0
SPLINE
  5
1c4
100
AcDbEntity
  8
0
 62
1
100
AcDbSpline
 70
8
 71
3
 72
8
 73
4
 74
0
 40
0
 40
0
 40
0
 40
0
 40
1
 40
1
 40
1
 40
1
 10
140.810430
 20
182.896273
 30
0.0
 10
140.810430
 20
183.432172
 30
0.0
 10
140.524531
 20
183.927363
 30
0.0
 10
140.060429
 20
184.195312
 30
0.0
  0
SPLINE
  5
1c5
100
AcDbEntity
  8
0
 62
1
100
AcDbSpline
 70
8
 71
3
 72
8
 73
4
 74
0
 40
0
 40
0
 40
0
 40
0
 40
1
 40
1
 40
1
 40
1
 10
140.060429
 20
184.195312
 30
0.0
 10
139.596327
 20
184.463262
 30
0.0
 10
139.024530
 20
184.463262
 30
0.0
 10
138.560428
 20
184.195312
 30
0.0
  0
SPLINE
  5
1c6
100
AcDbEntity
  8
0
 62
1
100
AcDbSpline
 70
8
 71
3
 72
8
 73
4
 74
0
 40
0
 40
0
 40
0
 40
0
 40
1
 40
1
 40
1
 40
1
 10
138.560428
 20
184.195312
 30
0.0
 10
138.096326
 20
183.927363
 30
0.0
 10
137.810428
 20
183.432172
 30
0.0
 10
137.810428
 20
182.896273
 30
0.0
  0
SPLINE
  5
1c7
100
AcDbEntity
  8
0
 62
1
100
AcDbSpline
 70
8
 71
3
 72
8
 73
4
 74
0
 40
0
 40
0
 40
0
 40
0
 40
1
 40
1
 40
1
 40
1
 10
137.810428
 20
182.896273
 30
0.0
 10
137.810428
 20
182.360374
 30
0.0
 10
138.096326
 20
181.865184
 30
0.0
 10
138.560428
 20
181.597234
 30
0.0
  0
SPLINE
  5
1c8
100
AcDbEntity
  8
0
 62
1
100
AcDbSpline
 70
8
 71
3
 72
8
 73
4
 74
0
 40
0
 40
0
 40
0
 40
0
 40
1
 40
1
 40
1
 40
1
 10
138.560428
 20
181.597234
 30
0.0
 10
139.024530
 20
181.329285
 30
0.0
 10
139.596327
 20
181.329285
 30
0.0
 10
140.060429
 20
181.597234
 30
0.0
  0
SPLINE
  5
1c9
100
AcDbEntity
  8
0
 62
1
100
AcDbSpline
 70
8
 71
3
 72
8
 73
4
 74
0
 40
0
 40
0
 40
0
 40
0
 40
1
 40
1
 40
1
 40
1
 10
140.060429
 20
181.597234
 30
0.0
 10
140.524531
 20
181.865184
 30
0.0
 10
140.810430
 20
182.360374
 30
0.0
 10
140.810430
 20
182.896273
 30
0.0
  0
LINE
  5
1ca
100
AcDbEntity
  8
0
 62
1
100
AcDbLine
 10
140.810430
 20
182.896273
 30
0.0
 11
140.810430
 21
182.896273
 31
0.0
  0
SPLINE
  5
1cb
100
AcDbEntity
  8
0
 62
1
100
AcDbSpline
 70
8
 71
3
 72
8
 73
4
 74
0
 40
0
 40
0
 40
0
 40
0
 40
1
 40
1
 40
1
 40
1
 10
71.884654
 20
150.055203
 30
0.0
 10
71.885044
 20
150.591361
 30
0.0
 10
71.599231
 20
151.086959
 30
0.0
 10
71.134969
 20
151.355150
 30
0.0
  0
SPLINE
  5
1cc
100
AcDbEntity
  8
0
 62
1
100
AcDbSpline
 70
8
 71
3
 72
8
 73
4
 74
0
 40
0
 40
0
 40
0
 40
0
 40
1
 40
1
 40
1
 40
1
 10
71.134969
 20
151.355150
 30
0.0
 10
70.670707
 20
151.623342
 30
0.0
 10
70.098601
 20
151.623342
 30
0.0
 10
69.634339
 20
151.355150
 30
0.0
  0
SPLINE
  5
1cd
100
AcDbEntity
  8
0
 62
1
100
AcDbSpline
 70
8
 71
3
 72
8
 73
4
 74
0
 40
0
 40
0
 40
0
 40
0
 40
1
 40
1
 40
1
 40
1
 10
69.634339
 20
151.355150
 30
0.0
 10
69.170077
 20
151.086959
 30
0.0
 10
68.884264
 20
150.591361
 30
0.0
 10
68.884654
 20
150.055203
 30
0.0
  0
SPLINE
  5
1ce
100
AcDbEntity
  8
0
 62
1
100
AcDbSpline
 70
8
 71
3
 72
8
 73
4
 74
0
 40
0
 40
0
 40
0
 40
0
 40
1
 40
1
 40
1
 40
1
 10
68.884654
 20
150.055203
 30
0.0
 10
68.884264
 20
149.519045
 30
0.0
 10
69.170077
 20
149.023447
 30
0.0
 10
69.634339
 20
148.755256
 30
0.0
  0
SPLINE
  5
1cf
100
AcDbEntity
  8
0
 62
1
100
AcDbSpline
 70
8
 71
3
 72
8
 73
4
 74
0
 40
0
 40
0
 40
0
 40
0
 40
1
 40
1
 40
1
 40
1
 10
69.634339
 20
148.755256
 30
0.0
 10
70.098601
 20
148.487064
 30
0.0
 10
70.670707
 20
148.487064
 30
0.0
 10
71.134969
 20
148.755256
 30
0.0
  0
SPLINE
  5
1d0
100
AcDbEntity
  8
0
 62
1
100
AcDbSpline
 70
8
 71
3
 72
8
 73
4
 74
0
 40
0
 40
0
 40
0
 40
0
 40
1
 40
1
 40
1
 40
1
 10
71.134969
 20
148.755256
 30
0.0
 10
71.599231
 20
149.023447
 30
0.0
 10
71.885044
 20
149.519045
 30
0.0
 10
71.884654
 20
150.055203
 30
0.0
  0
LINE
  5
1d1
100
AcDbEntity
  8
0
 62
1
100
AcDbLine
 10
71.884654
 20
150.055203
 30
0.0
 11
71.884654
 21
150.055203
 31
0.0
  0
SPLINE
  5
1d2
100
AcDbEntity
  8
0
 62
1
100
AcDbSpline
 70
8
 71
3
 72
8
 73
4
 74
0
 40
0
 40
0
 40
0
 40
0
 40
1
 40
1
 40
1
 40
1
 10
14.157882
 20
259.523761
 30
0.0
 10
14.158107
 20
260.059141
 30
0.0
 10
13.872614
 20
260.553950
 30
0.0
 10
13.408998
 20
260.821705
 30
0.0
  0
SPLINE
  5
1d3
100
AcDbEntity
  8
0
 62
1
100
AcDbSpline
 70
8
 71
3
 72
8
 73
4
 74
0
 40
0
 40
0
 40
0
 40
0
 40
1
 40
1
 40
1
 40
1
 10
13.408998
 20
260.821705
 30
0.0
 10
12.945382
 20
261.089461
 30
0.0
 10
12.374119
 20
261.089461
 30
0.0
 10
11.910503
 20
260.821705
 30
0.0
  0
SPLINE
  5
1d4
100
AcDbEntity
  8
0
 62
1
100
AcDbSpline
 70
8
 71
3
 72
8
 73
4
 74
0
 40
0
 40
0
 40
0
 40
0
 40
1
 40
1
 40
1
 40
1
 10
11.910503
 20
260.821705
 30
0.0
 10
11.446887
 20
260.553950
 30
0.0
 10
11.161394
 20
260.059141
 30
0.0
 10
11.161619
 20
259.523761
 30
0.0
  0
SPLINE
  5
1d5
100
AcDbEntity
  8
0
 62
1
100
AcDbSpline
 70
8
 71
3
 72
8
 73
4
 74
0
 40
0
 40
0
 40
0
 40
0
 40
1
 40
1
 40
1
 40
1
 10
11.161619
 20
259.523761
 30
0.0
 10
11.161394
 20
258.988380
 30
0.0
 10
11.446887
 20
258.493571
 30
0.0
 10
11.910503
 20
258.225816
 30
0.0
  0
SPLINE
  5
1d6
100
AcDbEntity
  8
0
 62
1
100
AcDbSpline
 70
8
 71
3
 72
8
 73
4
 74
0
 40
0
 40
0
 40
0
 40
0
 40
1
 40
1
 40
1
 40
1
 10
11.910503
 20
258.225816
 30
0.0
 10
12.374119
 20
257.958060
 30
0.0
 10
12.945382
 20
257.958060
 30
0.0
 10
13.408998
 20
258.225816
 30
0.0
  0
SPLINE
  5
1d7
100
AcDbEntity
  8
0
 62
1
100
AcDbSpline
 70
8
 71
3
 72
8
 73
4
 74
0
 40
0
 40
0
 40
0
 40
0
 40
1
 40
1
 40
1
 40
1
 10
13.408998
 20
258.225816
 30
0.0
 10
13.872614
 20
258.493571
 30
0.0
 10
14.158107
 20
258.988380
 30
0.0
 10
14.157882
 20
259.523761
 30
0.0
  0
LINE
  5
1d8
100
AcDbEntity
  8
0
 62
1
100
AcDbLine
 10
14.157882
 20
259.523761
 30
0.0
 11
14.157882
 21
259.523761
 31
0.0
  0
LINE
  5
1d9
100
AcDbEntity
  8
0
 62
1
100
AcDbLine
 10
199.464509
 20
247.186070
 30
0.0
 11
199.464509
 21
266.699152
 31
0.0
  0
LINE
  5
1da
100
AcDbEntity
  8
0
 62
1
100
AcDbLine
 10
158.972176
 20
196.926659
 30
0.0
 11
191.982937
 21
229.350579
 31
0.0
  0
LINE
  5
1db
100
AcDbEntity
  8
0
 62
1
100
AcDbLine
 10
134.875185
 20
72.638188
 30
0.0
 11
151.779422
 21
182.880314
 31
0.0
  0
LINE
  5
1dc
100
AcDbEntity
  8
0
 62
1
100
AcDbLine
 10
74.972963
 20
66.699150
 30
0.0
 11
127.956056
 21
66.699150
 31
0.0
  0
LINE
  5
1dd
100
AcDbEntity
  8
0
 62
1
100
AcDbLine
 10
51.149597
 20
182.880314
 30
0.0
 11
68.053834
 21
72.638188
 31
0.0
  0
LINE
  5
1de
100
AcDbEntity
  8
0
 62
1
100
AcDbLine
 10
10.946084
 20
229.350579
 30
0.0
 11
43.956843
 21
196.926659
 31
0.0
  0
LINE
  5
1df
100
AcDbEntity
  8
0
 62
1
100
AcDbLine
 10
3.464510
 20
266.699152
 30
0.0
 11
3.464510
 21
247.186070
 31
0.0
  0
LINE
  5
1e0
100
AcDbEntity
  8
0
 62
1
100
AcDbLine
 10
3.464510
 20
266.699152
 30
0.0
 11
199.464509
 21
266.699152
 31
0.0
  0
SPLINE
  5
1e1
100
AcDbEntity
  8
0
 62
1
100
AcDbSpline
 70
8
 71
3
 72
8
 73
4
 74
0
 40
0
 40
0
 40
0
 40
0
 40
1
 40
1
 40
1
 40
1
 10
127.956056
 20
66.699150
 30
0.0
 10
131.412372
 20
66.699150
 30
0.0
 10
134.351326
 20
69.221803
 30
0.0
 10
134.875185
 20
72.638188
 30
0.0
  0
SPLINE
  5
1e2
100
AcDbEntity
  8
0
 62
1
100
AcDbSpline
 70
8
 71
3
 72
8
 73
4
 74
0
 40
0
 40
0
 40
0
 40
0
 40
1
 40
1
 40
1
 40
1
 10
68.053834
 20
72.638188
 30
0.0
 10
68.577693
 20
69.221803
 30
0.0
 10
71.516647
 20
66.699150
 30
0.0
 10
74.972963
 20
66.699150
 30
0.0
  0
SPLINE
  5
1e3
100
AcDbEntity
  8
0
 62
1
100
AcDbSpline
 70
8
 71
3
 72
8
 73
4
 74
0
 40
0
 40
0
 40
0
 40
0
 40
1
 40
1
 40
1
 40
1
 10
191.982937
 20
229.350579
 30
0.0
 10
196.768654
 20
234.051220
 30
0.0
 10
199.464510
 20
240.477933
 30
0.0
 10
199.464509
 20
247.186070
 30
0.0
  0
SPLINE
  5
1e4
100
AcDbEntity
  8
0
 62
1
100
AcDbSpline
 70
8
 71
3
 72
8
 73
4
 74
0
 40
0
 40
0
 40
0
 40
0
 40
1
 40
1
 40
1
 40
1
 10
158.972176
 20
196.926659
 30
0.0
 10
155.120960
 20
193.143907
 30
0.0
 10
152.597612
 20
188.216196
 30
0.0
 10
151.779422
 20
182.880314
 30
0.0
  0
SPLINE
  5
1e5
100
AcDbEntity
  8
0
 62
1
100
AcDbSpline
 70
8
 71
3
 72
8
 73
4
 74
0
 40
0
 40
0
 40
0
 40
0
 40
1
 40
1
 40
1
 40
1
 10
51.149597
 20
182.880314
 30
0.0
 10
50.331407
 20
188.216196
 30
0.0
 10
47.808059
 20
193.143907
 30
0.0
 10
43.956843
 20
196.926659
 30
0.0
  0
SPLINE
  5
1e6
100
AcDbEntity
  8
0
 62
1
100
AcDbSpline
 70
8
 71
3
 72
8
 73
4
 74
0
 40
0
 40
0
 40
0
 40
0
 40
1
 40
1
 40
1
 40
1
 10
3.464510
 20
247.186070
 30
0.0
 10
3.464510
 20
240.477932
 30
0.0
 10
6.160367
 20
234.051220
 30
0.0
 10
10.946084
 20
229.350579
 30
0.0
  0
ENDSEC
  0
SECTION
  2
OBJECTS
  0
DICTIONARY
  5
C
330
0
100
AcDbDictionary
  3
ACAD_GROUP
350
D
  3
ACAD_MLINESTYLE
350
17
  0
DICTIONARY
  5
D
330
C
100
AcDbDictionary
  0
DICTIONARY
  5
1A
330
C
100
AcDbDictionary
  0
DICTIONARY
  5
17
330
C
100
AcDbDictionary
  3
STANDARD
350
18
  0
DICTIONARY
  5
19
330
C
100
AcDbDictionary
  0
ENDSEC
  0
EOF
